<?xml version="1.0" encoding="UTF-8" standalone="no"?>
<!-- Created with Inkscape (http://www.inkscape.org/) -->

<svg
   xmlns:dc="http://purl.org/dc/elements/1.1/"
   xmlns:cc="http://creativecommons.org/ns#"
   xmlns:rdf="http://www.w3.org/1999/02/22-rdf-syntax-ns#"
   xmlns:svg="http://www.w3.org/2000/svg"
   xmlns="http://www.w3.org/2000/svg"
   xmlns:sodipodi="http://sodipodi.sourceforge.net/DTD/sodipodi-0.dtd"
   xmlns:inkscape="http://www.inkscape.org/namespaces/inkscape"
   width="210mm"
   height="297mm"
   viewBox="0 0 210 297"
   version="1.1"
   id="svg12539"
   inkscape:version="0.92.3 (unknown)"
   sodipodi:docname="Plasmodium_falciparum.svg">
  <defs
     id="defs12533">
    <inkscape:path-effect
       effect="bspline"
       id="path-effect13120"
       is_visible="true"
       weight="33.333333"
       steps="2"
       helper_size="0"
       apply_no_weight="true"
       apply_with_weight="true"
       only_selected="false" />
    <inkscape:path-effect
       effect="bspline"
       id="path-effect13116"
       is_visible="true"
       weight="33.333333"
       steps="2"
       helper_size="0"
       apply_no_weight="true"
       apply_with_weight="true"
       only_selected="false" />
    <inkscape:path-effect
       effect="bspline"
       id="path-effect13108"
       is_visible="true"
       weight="33.333333"
       steps="2"
       helper_size="0"
       apply_no_weight="true"
       apply_with_weight="true"
       only_selected="false" />
  </defs>
  <sodipodi:namedview
     id="base"
     pagecolor="#ffffff"
     bordercolor="#666666"
     borderopacity="1.0"
     inkscape:pageopacity="0.0"
     inkscape:pageshadow="2"
     inkscape:zoom="1.4"
     inkscape:cx="461.15385"
     inkscape:cy="748.71262"
     inkscape:document-units="mm"
     inkscape:current-layer="layer1"
     showgrid="false"
     inkscape:window-width="1855"
     inkscape:window-height="1056"
     inkscape:window-x="1985"
     inkscape:window-y="24"
     inkscape:window-maximized="1" />
  <metadata
     id="metadata12536">
    <rdf:RDF>
      <cc:Work
         rdf:about="">
        <dc:format>image/svg+xml</dc:format>
        <dc:type
           rdf:resource="http://purl.org/dc/dcmitype/StillImage" />
        <dc:title></dc:title>
      </cc:Work>
    </rdf:RDF>
  </metadata>
  <g
     inkscape:label="Layer 1"
     inkscape:groupmode="layer"
     id="layer1">
    <path
       style="fill:#d19fee;fill-opacity:1;stroke:#000000;stroke-width:0.26458332px;stroke-linecap:butt;stroke-linejoin:miter;stroke-opacity:1"
       d="m 140.22553,36.522369 c -6.1283,0.214967 -14.10923,0.720508 -25.22808,3.646071 -11.11884,2.925562 -25.372751,8.27078 -37.44457,16.46709 -12.071819,8.196309 -21.960569,19.243201 -29.577864,30.112278 -7.617294,10.869076 -12.962552,21.559592 -15.67987,30.513252 -2.717318,8.95366 -2.806405,16.16972 -1.291844,26.41533 1.514561,10.24562 4.632589,23.51951 7.79536,31.18137 3.16277,7.66186 6.369956,9.7109 11.269901,11.26995 4.899945,1.55906 11.492734,2.62817 16.615445,2.00442 5.122711,-0.62374 8.775397,-2.94008 11.492449,-6.77075 2.717052,-3.83066 4.499022,-9.17657 6.058052,-13.94275 1.55903,-4.76618 2.895456,-8.95365 4.2763,-13.09618 1.380844,-4.14252 2.806388,-8.24096 4.944475,-12.56164 2.138087,-4.32068 4.989187,-8.86461 8.018166,-12.82897 3.02897,-3.96437 6.23642,-7.35002 10.51255,-10.64617 4.27613,-3.29615 9.62194,-6.50365 14.65539,-9.13171 5.03344,-2.62807 9.7558,-4.67739 13.63094,-6.72635 3.87514,-2.04896 6.90439,-4.098163 9.93345,-5.790838 3.02907,-1.692674 6.05812,-3.029022 9.17626,-4.543564 3.11814,-1.514542 6.32538,-3.207253 10.11167,-6.14726 3.78629,-2.940007 8.1517,-7.127234 11.04704,-10.378965 2.89534,-3.251732 4.32087,-5.568214 5.43442,-8.64181 1.11356,-3.073596 1.91537,-6.904459 2.00442,-11.091644 0.089,-4.187184 -0.53459,-8.730761 -2.36077,-11.715087 -1.82617,-2.984326 -4.85542,-4.409854 -8.1022,-5.300304 -3.24678,-0.890449 -6.71118,-1.245859 -10.51811,-1.549899 -3.80694,-0.304039 -7.95545,-0.556623 -12.16521,-0.720834 -4.20976,-0.164211 -8.47947,-0.240004 -14.60777,-0.02504 z"
       id="path13114"
       inkscape:connector-curvature="0"
       inkscape:path-effect="#path-effect13116"
       inkscape:original-d="m 142.08177,36.231567 c -7.98456,0.505523 -15.96549,1.011063 -23.94864,1.516992 -14.25457,5.3453 -28.508485,10.690516 -42.763124,16.036171 -9.888929,11.047123 -19.77768,22.094015 -29.666916,33.141419 -5.345263,10.690788 -10.690519,21.381301 -16.036173,32.072341 -0.08883,7.21623 -0.177914,14.43229 -0.267269,21.64884 3.118524,13.27461 6.236554,26.5485 9.354433,39.82315 3.207544,2.04884 6.414733,4.09787 9.621703,6.1472 6.592773,1.06879 13.185561,2.1379 19.777944,3.20724 3.652948,-2.3166 7.305633,-4.63294 10.95805,-6.94901 1.78189,-5.34514 3.563858,-10.69105 5.345391,-16.03617 1.336534,-4.18724 2.672961,-8.37471 4.009043,-12.56167 1.425596,-4.09809 2.851139,-8.19653 4.276312,-12.2944 2.85092,-4.54349 5.702014,-9.08743 8.552626,-13.63074 3.20728,-3.38545 6.41473,-6.7711 9.6217,-10.15625 5.34523,-3.20724 10.69105,-6.41473 16.03617,-9.6217 4.72176,-2.04921 9.44411,-4.09854 14.16529,-6.1472 3.02912,-2.04919 6.05837,-4.098395 9.08717,-6.147196 3.02931,-1.336612 6.05836,-2.672959 9.08715,-4.009042 3.2075,-1.692973 6.41474,-3.385683 9.6217,-5.078124 4.36567,-4.187479 8.73108,-8.374709 13.09622,-12.561665 1.42561,-2.316458 2.85114,-4.632938 4.27631,-6.949008 0.80207,-3.831127 1.60388,-7.66199 2.40543,-11.492591 -0.62337,-4.543849 -1.247,-9.087426 -1.87089,-13.630745 -3.0286,-1.425614 -6.05785,-2.851139 -9.08717,-4.276312 -3.46436,-0.355697 -6.92876,-0.711106 -10.39386,-1.066296 -4.14878,-0.252881 -8.29729,-0.505465 -12.44634,-0.757801 -4.27049,-0.07608 -8.5402,-0.151868 -12.81226,-0.227433 z"
       sodipodi:nodetypes="cccccccccccccccccccccccccccc" />
    <path
       style="fill:#45079d;stroke:#000000;stroke-width:0.27367893px;stroke-linecap:butt;stroke-linejoin:miter;stroke-opacity:1;fill-opacity:0.65437788"
       d="m 87.737305,128.30597 c -1.443325,-0.32348 -4.330047,-0.97044 -6.96227,-2.61717 -2.632224,-1.64673 -5.009413,-4.29298 -6.05958,-7.5024 -1.050168,-3.20942 -0.77327,-6.98192 -0.644112,-10.98706 0.129157,-4.00515 0.110602,-8.243738 1.477824,-13.260472 1.367222,-5.016735 4.120085,-10.81193 8.391075,-15.632879 4.27099,-4.820949 10.06002,-8.667839 15.01995,-11.165159 4.959928,-2.49732 9.090828,-3.645227 13.228068,-3.973744 4.13723,-0.328517 8.28097,0.162237 11.73716,0.407598 3.45619,0.24536 6.2253,0.24536 8.76322,1.073377 2.53791,0.828017 4.84554,2.484347 6.87601,4.232481 2.03047,1.748133 3.78413,3.588352 4.84552,5.704461 1.06139,2.116108 1.43057,4.508335 1.47674,6.808631 0.0462,2.300296 -0.23069,4.50831 -0.8306,6.348586 -0.59991,1.840276 -1.52274,3.312214 -2.21504,4.554445 -0.69229,1.242231 -1.15367,2.254115 -1.79982,3.17437 -0.64614,0.920256 -1.47654,1.748066 -4.63855,3.54275 -3.16201,1.794685 -8.65183,4.554055 -13.52058,7.314395 -4.86874,2.76034 -9.1141,5.52045 -12.22918,7.77471 -3.11508,2.25427 -5.09929,4.00231 -7.03767,6.00365 -1.93838,2.00135 -3.830164,4.25524 -6.228414,5.71804 -2.39825,1.46279 -5.301704,2.13368 -6.754064,2.46927 -1.45236,0.33559 -1.45236,0.33559 -1.45236,0.33559 0,0 -3e-6,0 -1.443327,-0.32347 z"
       id="path13118"
       inkscape:connector-curvature="0"
       inkscape:path-effect="#path-effect13120"
       inkscape:original-d="m 89.180629,128.62944 c -2.886581,-0.64725 -5.773301,-1.29422 -8.660481,-1.94096 -2.377062,-2.64666 -4.754247,-5.29291 -7.131762,-7.93896 0.277154,-3.77252 0.554049,-7.54502 0.830667,-11.31712 -0.01829,-4.23821 -0.03684,-8.476799 -0.05566,-12.71479 2.75311,-5.795423 5.505972,-11.590618 8.258551,-17.385508 5.789247,-3.847124 11.578277,-7.694014 17.366994,-11.540607 4.131135,-1.148162 8.262035,-2.29607 12.392635,-3.443701 4.14395,0.490483 8.28769,0.981238 12.43111,1.47225 2.76893,-2.73e-4 5.53804,-2.73e-4 8.30665,0 2.30744,1.655726 4.61507,3.312056 6.9222,4.968494 1.75386,1.839873 3.50752,3.680093 5.26088,5.52055 0.36946,2.391975 0.73863,4.784204 1.10755,7.176717 -0.27664,2.208155 -0.55352,4.416167 -0.83067,6.62466 -0.92282,1.472075 -1.84564,2.944021 -2.76889,4.416441 -0.4613,1.012047 -0.92268,2.02393 -1.38443,3.036306 -0.83067,0.828074 -1.66106,1.655889 -2.492,2.484241 -5.49314,2.760907 -10.98296,5.520287 -16.47484,8.280827 -4.2456,2.76017 -8.49096,5.52028 -12.73685,8.28083 -1.98424,1.74803 -3.96845,3.49607 -5.9531,5.24452 -1.89206,2.25428 -3.783858,4.50817 -5.676193,6.76268 -2.904227,0.67087 -5.807681,1.34176 -8.712358,2.01313 2.65e-4,-2.6e-4 2.65e-4,-2.6e-4 0,0 z"
       sodipodi:nodetypes="ccccccccccccccccccccccc" />
  </g>
</svg>
