<?xml version="1.0" encoding="UTF-8" standalone="no"?>
<!-- Created with Inkscape (http://www.inkscape.org/) -->

<svg
   xmlns:dc="http://purl.org/dc/elements/1.1/"
   xmlns:cc="http://creativecommons.org/ns#"
   xmlns:rdf="http://www.w3.org/1999/02/22-rdf-syntax-ns#"
   xmlns:svg="http://www.w3.org/2000/svg"
   xmlns="http://www.w3.org/2000/svg"
   xmlns:sodipodi="http://sodipodi.sourceforge.net/DTD/sodipodi-0.dtd"
   xmlns:inkscape="http://www.inkscape.org/namespaces/inkscape"
   width="210mm"
   height="297mm"
   viewBox="0 0 210 297"
   version="1.1"
   id="svg6914"
   inkscape:version="0.92.3 (unknown)"
   sodipodi:docname="insecticide.svg">
  <defs
     id="defs6908">
    <inkscape:path-effect
       effect="bspline"
       id="path-effect7614"
       is_visible="true"
       weight="33.333333"
       steps="2"
       helper_size="0"
       apply_no_weight="true"
       apply_with_weight="true"
       only_selected="false" />
    <inkscape:path-effect
       effect="bspline"
       id="path-effect7519"
       is_visible="true"
       weight="33.333333"
       steps="2"
       helper_size="0"
       apply_no_weight="true"
       apply_with_weight="true"
       only_selected="false" />
    <inkscape:path-effect
       effect="bspline"
       id="path-effect7515"
       is_visible="true"
       weight="33.333333"
       steps="2"
       helper_size="0"
       apply_no_weight="true"
       apply_with_weight="true"
       only_selected="false" />
    <inkscape:path-effect
       effect="bspline"
       id="path-effect7511"
       is_visible="true"
       weight="33.333333"
       steps="2"
       helper_size="0"
       apply_no_weight="true"
       apply_with_weight="true"
       only_selected="false" />
    <inkscape:path-effect
       effect="bspline"
       id="path-effect7507"
       is_visible="true"
       weight="33.333333"
       steps="2"
       helper_size="0"
       apply_no_weight="true"
       apply_with_weight="true"
       only_selected="false" />
    <inkscape:path-effect
       effect="bspline"
       id="path-effect7503"
       is_visible="true"
       weight="33.333333"
       steps="2"
       helper_size="0"
       apply_no_weight="true"
       apply_with_weight="true"
       only_selected="false" />
    <inkscape:path-effect
       effect="bspline"
       id="path-effect7495"
       is_visible="true"
       weight="33.333333"
       steps="2"
       helper_size="0"
       apply_no_weight="true"
       apply_with_weight="true"
       only_selected="false" />
    <inkscape:path-effect
       effect="bspline"
       id="path-effect7491"
       is_visible="true"
       weight="33.333333"
       steps="2"
       helper_size="0"
       apply_no_weight="true"
       apply_with_weight="true"
       only_selected="false" />
    <inkscape:path-effect
       effect="bspline"
       id="path-effect7487"
       is_visible="true"
       weight="33.333333"
       steps="2"
       helper_size="0"
       apply_no_weight="true"
       apply_with_weight="true"
       only_selected="false" />
    <inkscape:path-effect
       effect="bspline"
       id="path-effect7481"
       is_visible="true"
       weight="33.333333"
       steps="2"
       helper_size="0"
       apply_no_weight="true"
       apply_with_weight="true"
       only_selected="false" />
    <inkscape:path-effect
       effect="bspline"
       id="path-effect7477"
       is_visible="true"
       weight="33.333333"
       steps="2"
       helper_size="0"
       apply_no_weight="true"
       apply_with_weight="true"
       only_selected="false" />
    <clipPath
       clipPathUnits="userSpaceOnUse"
       id="clipPath6893">
      <rect
         style="opacity:1;vector-effect:none;fill:#b32d1c;fill-opacity:0.82488475;fill-rule:nonzero;stroke:#9c6924;stroke-width:0.0589856;stroke-linecap:butt;stroke-linejoin:miter;stroke-miterlimit:4;stroke-dasharray:none;stroke-dashoffset:0;stroke-opacity:1"
         id="rect6895"
         width="52.530029"
         height="185.88914"
         x="87.52951"
         y="36.971104"
         clip-path="none" />
    </clipPath>
  </defs>
  <sodipodi:namedview
     id="base"
     pagecolor="#ffffff"
     bordercolor="#666666"
     borderopacity="1.0"
     inkscape:pageopacity="0.0"
     inkscape:pageshadow="2"
     inkscape:zoom="0.7"
     inkscape:cx="209.39778"
     inkscape:cy="652.65274"
     inkscape:document-units="mm"
     inkscape:current-layer="g7630"
     showgrid="false"
     inkscape:window-width="1855"
     inkscape:window-height="1056"
     inkscape:window-x="65"
     inkscape:window-y="24"
     inkscape:window-maximized="1" />
  <metadata
     id="metadata6911">
    <rdf:RDF>
      <cc:Work
         rdf:about="">
        <dc:format>image/svg+xml</dc:format>
        <dc:type
           rdf:resource="http://purl.org/dc/dcmitype/StillImage" />
        <dc:title></dc:title>
      </cc:Work>
    </rdf:RDF>
  </metadata>
  <g
     inkscape:label="Layer 1"
     inkscape:groupmode="layer"
     id="layer1">
    <g
       id="g7630">
      <path
         inkscape:original-d="m 89.580357,208.55357 c 1.058216,0.6731 2.116167,1.34646 3.173854,2.02008 3.340918,0.77923 6.682003,1.55881 10.022609,2.33861 4.89992,-0.11162 9.80015,-0.22299 14.69982,-0.33408 4.2318,-0.75749 8.4638,-1.5148 12.6953,-2.27179 0.51782,-0.39552 1.03544,-0.79083 1.55276,-1.18585"
         inkscape:path-effect="#path-effect7481"
         inkscape:connector-curvature="0"
         id="path7479"
         d="m 89.580357,208.55357 c 1.058022,0.6734 2.115973,1.34676 4.315337,2.07319 2.199365,0.72642 5.540448,1.50601 9.660746,1.84007 4.12031,0.33407 9.02054,0.2227 13.58629,-0.21161 4.56575,-0.43432 8.79775,-1.19162 11.1724,-1.76797 2.37466,-0.57634 2.89228,-0.97165 3.40957,-1.36671"
         style="fill:none;stroke:#ffffff;stroke-width:0.26458332px;stroke-linecap:butt;stroke-linejoin:miter;stroke-opacity:1" />
      <g
         transform="rotate(18.121127,48.328988,291.06735)"
         id="g7499"
         style="stroke:#000000;stroke-opacity:1;stroke-width:0.5;stroke-miterlimit:4;stroke-dasharray:none">
        <path
           style="fill:#0c6f02;fill-opacity:1;stroke-width:0.5;stroke:#000000;stroke-opacity:1;stroke-miterlimit:4;stroke-dasharray:none"
           d="m 104.27978,228.61749 c -7.76909,-0.6127 -14.17911,-2.53438 -16.49089,-4.94384 -0.48426,-0.50472 -0.98904,-1.3787 -1.12173,-1.94219 -0.28873,-1.22602 -0.76045,-61.83712 -0.76948,-98.86946 -0.006,-25.736479 0.007,-26.474981 0.5442,-29.064771 1.04317,-5.034079 3.56832,-9.666361 6.91103,-12.677949 1.90131,-1.712976 5.26978,-3.94879 5.94923,-3.94879 0.19109,0 0.34743,-0.273844 0.34743,-0.608542 0,-0.334698 0.10881,-0.721651 0.24181,-0.859896 0.13299,-0.138244 0.28182,-1.89908 0.33072,-3.912968 0.0838,-3.449781 0.1242,-3.690164 0.69862,-4.155097 0.70268,-0.568746 0.74369,-0.9267 1.08326,-9.455047 0.20339,-5.108103 0.24324,-5.397014 0.83061,-6.022243 0.33934,-0.361205 1.04145,-0.766807 1.56025,-0.901337 1.72931,-0.44843 6.20874,-0.734017 8.38206,-0.534402 3.48095,0.319719 4.27871,0.519898 5.08921,1.277023 0.84506,0.789401 0.71713,-0.165831 1.38694,10.355842 0.25883,4.065917 0.36118,4.702367 0.83977,5.222296 0.47913,0.520509 0.55836,1.016293 0.65541,4.101042 0.12516,3.978227 0.44124,5.030387 1.63631,5.446992 2.17785,0.759201 5.90256,3.854868 8.39343,6.97592 2.12619,2.66409 3.79394,6.84204 4.57419,11.458959 0.2364,1.398844 0.29286,16.906098 0.23072,63.367708 l -0.0823,61.51563 -0.59609,1.40083 c -0.89065,2.09305 -1.62596,2.9388 -3.28571,3.77916 -3.74589,1.8966 -9.9604,2.85072 -19.53382,2.99904 -3.56526,0.0552 -7.07761,0.0535 -7.80521,-0.004 z M 102.93522,62.193554 c 0.35671,-0.136879 0.41911,-0.771893 0.42257,-4.299479 0.002,-2.276384 0.0915,-4.266627 0.19844,-4.422763 0.36727,-0.536369 1.00805,-0.580262 2.84835,-0.195111 3.28084,0.686642 4.82739,0.709635 7.1797,0.106746 1.18841,-0.304587 2.42865,-0.553794 2.75607,-0.553794 0.32743,0 0.511,-0.08433 0.40792,-0.187409 -0.10307,-0.103076 -2.8519,-0.208729 -6.10851,-0.234786 -5.37056,-0.04297 -5.99686,-0.0013 -6.73585,0.448104 -0.68839,0.418629 -0.81476,0.657265 -0.81476,1.538557 0,0.573693 -0.11025,1.914896 -0.245,2.980452 -0.33239,2.628515 -0.53023,4.980082 -0.41898,4.980082 0.0503,0 0.27987,-0.07227 0.51005,-0.160599 z m 14.62382,-1.625338 c -0.0665,-0.254662 -0.121,-0.0463 -0.121,0.463021 0,0.509322 0.0545,0.717682 0.121,0.46302 0.0666,-0.254661 0.0666,-0.67138 0,-0.926041 z"
           id="path7471"
           inkscape:connector-curvature="0"
           sodipodi:nodetypes="cccscsssccssccscccscccscscccccccccscscscsccscc" />
        <path
           style="opacity:1;vector-effect:none;fill:#fffdb6;fill-opacity:0.98156684;fill-rule:nonzero;stroke:#000000;stroke-width:0.5;stroke-linecap:butt;stroke-linejoin:miter;stroke-miterlimit:4;stroke-dasharray:none;stroke-dashoffset:0;stroke-opacity:1"
           d="m 102.77271,212.1372 c -4.910652,-0.51794 -9.537191,-1.72373 -11.9014,-3.10182 l -1.179489,-0.68752 0.186752,-51.86539 c 0.102714,-28.52596 0.259247,-52.55898 0.347851,-53.4067 0.145337,-1.39051 0.20905,-1.51564 0.651199,-1.27901 1.498629,0.80204 5.873631,1.10851 17.795677,1.24659 12.38632,0.14346 18.6003,-0.10711 21.06704,-0.84949 0.72225,-0.21736 1.2605,-0.26102 1.35395,-0.10981 0.0853,0.13804 0.22438,24.2802 0.30904,53.64925 l 0.15391,53.39827 -1.04435,0.4178 c -5.00916,2.00392 -20.00911,3.40324 -27.74018,2.58783 z"
           id="path7483"
           inkscape:connector-curvature="0" />
      </g>
      <path
         sodipodi:nodetypes="ccc"
         inkscape:original-d="m 168.39986,86.601877 c -7.72697,-2.252468 -15.45371,-4.50453 -23.1813,-6.756498 -6.15152,-0.95855 -12.30312,-1.916806 -18.4548,-2.87477"
         inkscape:path-effect="#path-effect7503"
         inkscape:connector-curvature="0"
         id="path7501"
         d="m 168.39986,86.601877 c -7.72706,-2.252155 -15.4538,-4.504216 -22.39333,-6.109483 -6.93954,-1.605266 -13.09114,-2.563523 -19.24277,-3.521785"
         style="fill:none;stroke:#000000;stroke-width:0.5;stroke-linecap:butt;stroke-linejoin:miter;stroke-opacity:1;stroke-miterlimit:4;stroke-dasharray:none" />
      <path
         sodipodi:nodetypes="ccc"
         inkscape:original-d="M 168.38315,85.64973 C 162.35043,82.578049 156.31768,79.506752 150.28441,76.435589 142.60183,73.495316 134.9191,70.555353 127.23623,67.6157"
         inkscape:path-effect="#path-effect7507"
         inkscape:connector-curvature="0"
         id="path7505"
         d="m 168.38315,85.64973 c -6.03288,-3.071364 -12.06563,-6.142661 -18.92354,-9.148378 -6.8579,-3.005717 -14.54063,-5.945681 -22.22338,-8.885652"
         style="fill:none;stroke:#000000;stroke-width:0.5;stroke-linecap:butt;stroke-linejoin:miter;stroke-opacity:1;stroke-miterlimit:4;stroke-dasharray:none" />
      <path
         sodipodi:nodetypes="ccc"
         inkscape:original-d="m 169.60257,84.99826 c -6.54242,-4.957023 -13.08498,-9.913698 -19.62796,-14.870217 -4.82316,-3.168595 -9.64654,-6.336893 -14.47015,-9.504905"
         inkscape:path-effect="#path-effect7511"
         inkscape:connector-curvature="0"
         id="path7509"
         d="M 169.60257,84.99826 C 163.05993,80.04153 156.51736,75.084859 150.83431,71.022307 145.15125,66.959755 140.32787,63.791456 135.50446,60.623138"
         style="fill:none;stroke:#000000;stroke-width:0.5;stroke-linecap:butt;stroke-linejoin:miter;stroke-opacity:1;stroke-miterlimit:4;stroke-dasharray:none" />
      <path
         sodipodi:nodetypes="ccc"
         inkscape:original-d="m 168.76735,86.200974 c -9.89397,-3.427876 -19.78768,-6.855305 -29.68242,-10.282735 -4.45342,-0.925175 -8.90695,-1.850054 -13.3606,-2.774637"
         inkscape:path-effect="#path-effect7515"
         inkscape:connector-curvature="0"
         id="path7513"
         d="M 168.76735,86.200974 C 158.87327,82.773416 148.97956,79.345987 141.8055,77.169679 134.63145,74.99337 130.17792,74.068492 125.72433,73.143602"
         style="fill:none;stroke:#000000;stroke-width:0.5;stroke-linecap:butt;stroke-linejoin:miter;stroke-opacity:1;stroke-miterlimit:4;stroke-dasharray:none" />
      <path
         sodipodi:nodetypes="caac"
         inkscape:original-d="m 169.16825,85.616321 c 0,0 -10.54834,-6.462867 -15.86802,-9.618395 -4.24993,-2.466886 -8.5154,-4.942374 -12.7735,-7.413168 -3.28563,-1.846327 -9.85768,-5.538182 -9.85768,-5.538182"
         inkscape:path-effect="#path-effect7519"
         inkscape:connector-curvature="0"
         id="path7517"
         d="m 169.16825,85.616321 c -5.28934,-3.206132 -10.57892,-6.412411 -15.34853,-9.24869 -4.7696,-2.836279 -9.03507,-5.311767 -12.80693,-7.470326 -3.77187,-2.158559 -7.05785,-4.004668 -10.34374,-5.850729"
         style="fill:none;stroke:#000000;stroke-width:0.5;stroke-linecap:butt;stroke-linejoin:miter;stroke-opacity:1;stroke-miterlimit:4;stroke-dasharray:none" />
      <path
         sodipodi:nodetypes="csssssssassssssssssscaaaaasaaassc"
         inkscape:connector-curvature="0"
         id="path7525"
         d="m 133.80357,56.040177 c -0.63502,-1.520499 -2.66052,-0.675851 -1.90378,-2.286443 0.63634,-1.354347 1.49629,-1.226842 3.81281,-3.123576 1.03982,-0.851385 4.38992,-3.874378 4.89913,-5.594586 0.23202,-0.783804 1.2727,-3.106188 0.10034,-4.977097 -1.77247,-2.828565 -6.79447,-3.686998 -9.59484,-3.542437 -2.69767,0.139259 -6.81882,3.89016 -9.50051,7.242217 -1.3732,1.716465 -0.8058,3.674024 -2.31352,2.544831 -2.38282,-1.784586 5.368,-5.324802 4.01604,-7.977113 -1.69112,-3.317695 -8.22961,-3.638907 -11.02598,-1.797427 -2.26906,1.494233 -4.06632,5.077635 -4.34949,8.098526 -0.22914,2.44452 1.02245,4.55332 -0.0299,4.632207 -1.30764,0.09803 -0.67807,-1.067847 -0.77407,-2.871707 -0.19094,-3.58768 -0.17979,-9.419738 -2.48167,-10.895998 -4.10876,-2.635062 -10.775914,3.786565 -13.142574,7.863843 -3.086239,5.316969 2.329177,13.490281 -2.020643,9.246447 -7.047439,-6.87572 -21.058182,12.794571 -9.487613,16.778903 4.967111,1.710427 16.679401,-4.411977 13.006445,-2.171616 -47.773017,29.139686 13.033725,24.762605 13.473915,12.559997 0.29754,-8.248295 5.18617,-11.424359 3.04159,-5.276011 0,0 -9.00616,19.735968 14.44691,5.359538 0,0 1.24861,-0.652891 1.50044,-1.254129 0.848,-2.024543 0.21686,-4.500818 -0.53454,-6.563164 -0.41812,-1.147592 -1.22755,-2.155317 -2.12161,-2.987451 -1.45048,-1.350021 -5.54438,-1.159312 -5.0809,-3.085877 0.62898,-2.614503 5.49938,0.271888 8.04543,-0.593489 1.24875,-0.424436 2.76168,-1.520334 3.30607,-2.173821 0.58302,-0.699842 0.19303,-1.975973 -0.29848,-2.760016 -0.78124,-1.246194 -3.20054,-0.970985 -3.74178,-2.338608 -0.22669,-0.572815 1.73676,-0.02892 2.64388,0.50408 1.04311,0.612905 2.66598,0.899084 3.51642,0.899084 0.85045,0 2.97043,0.320657 2.78144,-1.569225 l -0.18899,-1.889882"
         style="fill:#d9d9d9;fill-opacity:0.99078345;stroke:#000000;stroke-width:0.5;stroke-linecap:butt;stroke-linejoin:miter;stroke-opacity:1;stroke-miterlimit:4;stroke-dasharray:none" />
      <circle
         r="15.404121"
         cy="176.57668"
         cx="151.17546"
         id="path7610"
         style="opacity:1;vector-effect:none;fill:none;fill-opacity:0.99078345;fill-rule:nonzero;stroke:#fe0000;stroke-width:1.76235652;stroke-linecap:butt;stroke-linejoin:miter;stroke-miterlimit:4;stroke-dasharray:none;stroke-dashoffset:0;stroke-opacity:1" />
      <path
         inkscape:connector-curvature="0"
         id="path7606"
         d="m 164.5683,186.07152 c -0.0184,-0.005 -0.0754,-0.0187 -0.12662,-0.0301 -0.0542,-0.012 -0.1193,-0.0636 -0.15573,-0.1235 -0.0615,-0.10099 -0.0613,-0.1057 0.007,-0.25866 0.0378,-0.0857 0.0965,-0.18014 0.13064,-0.20994 0.1033,-0.0903 0.11323,-0.32182 0.0282,-0.65471 -0.0416,-0.16271 -0.096,-0.31944 -0.12098,-0.34827 -0.0249,-0.0289 -0.055,-0.10045 -0.0667,-0.15909 -0.0117,-0.0587 -0.0327,-0.10668 -0.0467,-0.10668 -0.014,0 -0.0597,-0.0845 -0.10155,-0.18767 -0.0419,-0.10319 -0.18841,-0.35565 -0.32561,-0.56098 -0.22695,-0.33967 -0.34663,-0.47733 -0.6311,-0.72589 -0.10778,-0.0942 -0.24758,-0.28042 -0.24758,-0.32985 0,-0.0176 -0.0113,-0.0371 -0.025,-0.0432 -0.0138,-0.007 -0.0629,-0.0661 -0.1091,-0.13327 -0.11025,-0.16038 -0.34884,-0.43446 -0.71984,-0.82692 -0.42708,-0.45178 -0.42937,-0.45441 -0.49179,-0.56166 -0.0778,-0.13364 -0.41102,-0.55697 -0.61526,-0.78155 -0.0931,-0.10242 -0.28071,-0.32554 -0.41688,-0.49593 -0.13618,-0.17039 -0.25592,-0.30984 -0.26611,-0.30988 -0.01,-4e-5 -0.0712,-0.0452 -0.13572,-0.10034 -0.0644,-0.0552 -0.12643,-0.10034 -0.13768,-0.10045 -0.0345,-1e-4 -0.21907,-0.37429 -0.28099,-0.56944 -0.0322,-0.10132 -0.0856,-0.25202 -0.1186,-0.33492 -0.0331,-0.0828 -0.10089,-0.28635 -0.1507,-0.45212 -0.0498,-0.1658 -0.10219,-0.33157 -0.11655,-0.36841 -0.0501,-0.12909 -0.0937,-0.26939 -0.13524,-0.4354 -0.0231,-0.0921 -0.0549,-0.1845 -0.071,-0.20533 -0.016,-0.0209 -0.0519,-0.12634 -0.0797,-0.23445 -0.0278,-0.1081 -0.0934,-0.30205 -0.14586,-0.431 -0.0524,-0.12894 -0.12811,-0.33993 -0.16818,-0.46888 -0.04,-0.12894 -0.0871,-0.2606 -0.10449,-0.29259 -0.0174,-0.0319 -0.0317,-0.0761 -0.0317,-0.0983 0,-0.0221 -0.0293,-0.10143 -0.0651,-0.17629 -0.0864,-0.18083 -0.47075,-1.1794 -0.47075,-1.22325 0,-0.0189 -0.0514,-0.16638 -0.1143,-0.32769 -0.0629,-0.1613 -0.14053,-0.36557 -0.17261,-0.45392 -0.0321,-0.0883 -0.0685,-0.14864 -0.0811,-0.13397 -0.0504,0.0591 -0.0989,0.63938 -0.0751,0.89745 0.0169,0.18221 0.012,0.30544 -0.0154,0.38515 -0.0221,0.0644 -0.0411,0.1662 -0.0421,0.22607 -8.7e-4,0.0599 -0.0141,0.10887 -0.0291,0.10887 -0.015,0 -0.0613,0.0462 -0.10297,0.10253 -0.0708,0.0957 -0.0723,0.10789 -0.0231,0.18303 0.029,0.0443 0.0516,0.12248 0.0502,0.17378 -0.002,0.0932 -0.002,0.0932 -0.0427,-0.0175 -0.0221,-0.0609 -0.05,-0.10088 -0.0622,-0.0887 -0.0122,0.0121 -0.0138,-0.01 -0.003,-0.0482 0.0114,-0.0436 0.002,-0.0703 -0.0233,-0.0703 -0.0308,0 -0.0359,0.0442 -0.0195,0.16746 0.0233,0.17563 -0.0277,0.23955 -0.0669,0.0837 -0.0116,-0.0461 -0.0429,-0.0837 -0.0696,-0.0837 -0.0267,0 -0.0402,0.0136 -0.0299,0.0302 0.01,0.0166 -0.0109,0.12609 -0.0472,0.24332 -0.0747,0.2418 -0.17688,0.32933 -0.38449,0.32933 -0.12278,0 -0.13803,-0.0109 -0.35836,-0.25378 -0.0973,-0.10723 -0.29473,-0.26368 -0.3082,-0.24414 -0.0661,0.0959 -0.11611,0.19819 -0.13569,0.27758 -0.0132,0.0538 -0.0533,0.13497 -0.0891,0.18036 -0.0357,0.0454 -0.0649,0.11691 -0.0649,0.15894 0,0.0998 -0.1103,0.35558 -0.17731,0.4112 -0.0289,0.024 -0.1335,0.0519 -0.23249,0.0622 -0.15657,0.0162 -0.19177,0.009 -0.27063,-0.0608 -0.0591,-0.0517 -0.10494,-0.14053 -0.13168,-0.25519 -0.0373,-0.15963 -0.0914,-0.23791 -0.0927,-0.13396 -3.7e-4,0.0325 -0.007,0.0322 -0.0279,-0.001 -0.0409,-0.0645 -0.20603,0.007 -0.20603,0.089 0,0.0353 -0.0218,0.0726 -0.0484,0.0828 -0.0266,0.01 -0.0588,0.0759 -0.0715,0.14593 -0.0336,0.18566 -0.10613,0.31001 -0.2021,0.34649 -0.12081,0.046 -0.45967,0.0395 -0.52132,-0.01 -0.0701,-0.0561 -0.13761,-0.33338 -0.0885,-0.36371 0.0591,-0.0366 0.007,-0.085 -0.33421,-0.31095 -0.17866,-0.11827 -0.37759,-0.27082 -0.44206,-0.33902 -0.0645,-0.0682 -0.17447,-0.16064 -0.24445,-0.20548 -0.15431,-0.0989 -0.30431,-0.16008 -0.27461,-0.11202 0.0114,0.0184 -0.004,0.0334 -0.0336,0.0334 -0.0298,0 -0.0463,0.0128 -0.0367,0.0284 0.01,0.0156 -0.01,0.058 -0.0438,0.0942 -0.0794,0.0852 -0.1571,0.22846 -0.10712,0.1976 0.021,-0.013 0.0369,4.3e-4 0.0369,0.0314 0,0.0311 -0.0158,0.0444 -0.0371,0.0313 -0.0245,-0.0152 -0.03,-4.3e-4 -0.016,0.0435 0.0128,0.0405 0.001,0.0829 -0.0299,0.10877 -0.028,0.0233 -0.051,0.0706 -0.051,0.10515 0,0.0346 -0.0135,0.0629 -0.0299,0.0629 -0.0164,0 -0.0387,0.0353 -0.0496,0.0787 -0.0186,0.0741 -0.18532,0.28785 -0.34275,0.4395 -0.0388,0.0374 -0.0948,0.11516 -0.12439,0.17283 -0.0699,0.13617 -0.22925,0.26884 -0.3564,0.29676 -0.10242,0.0224 -0.20724,0.13873 -0.26704,0.29602 -0.0182,0.0477 -0.10898,0.19122 -0.20178,0.31884 -0.0928,0.12763 -0.16878,0.2392 -0.16878,0.24791 0,0.009 -0.11304,0.13451 -0.25119,0.27955 -0.13815,0.14504 -0.25119,0.27393 -0.25119,0.28643 0,0.0644 -0.52837,0.62418 -0.64862,0.6872 -0.0529,0.0277 -0.12486,0.0428 -0.16013,0.0335 -0.13345,-0.0349 -0.59387,0.18885 -0.70924,0.34467 -0.0217,0.0292 -0.1524,0.11968 -0.29055,0.20099 -0.13816,0.0813 -0.32655,0.21066 -0.41865,0.28744 -0.0921,0.0768 -0.20051,0.15003 -0.24091,0.16277 -0.0404,0.0128 -0.15983,0.0903 -0.26541,0.17224 -0.10559,0.082 -0.21592,0.14906 -0.24521,0.14906 -0.0676,0 -0.29884,0.12142 -0.38933,0.20447 -0.0812,0.0745 -0.22449,0.0832 -0.27953,0.0169 -0.0213,-0.0256 -0.08,-0.0638 -0.13049,-0.0847 -0.0826,-0.0342 -0.12624,-0.0196 -0.43714,0.14712 -0.18995,0.10187 -0.36291,0.1856 -0.38436,0.18619 -0.0214,4.3e-4 -0.0687,0.0235 -0.10493,0.0509 -0.0363,0.0275 -0.12225,0.065 -0.19106,0.0835 -0.0688,0.0185 -0.14622,0.0548 -0.17199,0.0805 -0.0811,0.0811 -0.29313,0.15308 -0.38382,0.13032 -0.0697,-0.0175 -0.0818,-0.0115 -0.065,0.0325 0.0161,0.042 -0.007,0.0584 -0.1033,0.0739 -0.0683,0.0109 -0.14974,0.0337 -0.18112,0.0508 -0.0317,0.0172 -0.065,0.0181 -0.075,0.002 -0.01,-0.016 -0.0746,-0.0109 -0.14389,0.0117 -0.1242,0.0402 -0.49729,0.0437 -0.53592,0.005 -0.0109,-0.0109 -0.0701,-0.0198 -0.13149,-0.0198 -0.0614,0 -0.11164,-0.0166 -0.11164,-0.0371 0,-0.0204 0.0226,-0.0284 0.0502,-0.0178 0.0277,0.011 0.0502,0.004 0.0502,-0.0151 0,-0.0189 0.017,-0.0239 0.0379,-0.0111 0.0232,0.0143 0.0313,0.005 0.0209,-0.0231 -0.009,-0.0256 -0.0376,-0.0405 -0.0629,-0.0331 -0.14526,0.0425 -0.3607,0.11132 -0.44796,0.1433 -0.0553,0.0202 -0.15076,0.0346 -0.21222,0.0319 -0.065,-0.003 -0.15126,0.0232 -0.20613,0.0623 -0.1057,0.0753 -0.16775,0.086 -0.16775,0.0291 0,-0.0495 -0.30099,-0.0146 -0.48562,0.0562 l -0.13397,0.0514 0.22607,-0.0142 c 0.12433,-0.008 0.22606,-8.5e-4 0.22606,0.0154 0,0.0163 -0.0516,0.0296 -0.11466,0.0296 -0.135,0 -0.39795,0.0501 -0.65564,0.12492 -0.25837,0.075 -0.81418,0.0739 -0.89786,-0.002 -0.0524,-0.0475 -0.1538,-0.0558 -0.69686,-0.0576 -0.40002,-0.001 -0.67213,0.0121 -0.73443,0.0361 -0.0545,0.021 -0.1668,0.05 -0.2497,0.0645 -0.19492,0.034 -0.46737,0.10297 -0.5526,0.13968 -0.0928,0.0399 -0.48792,0.16313 -0.52344,0.16313 -0.0307,0 -0.60466,0.24685 -0.71202,0.30627 -0.12673,0.0701 -0.37851,0.12477 -0.65681,0.14248 -0.31876,0.0202 -0.67735,0.0733 -0.8038,0.11899 -0.0461,0.0166 -0.23955,0.0381 -0.42998,0.0478 -0.19044,0.01 -0.36375,0.0316 -0.38515,0.0488 -0.0437,0.035 -0.40519,0.0738 -0.80922,0.0868 -0.14735,0.004 -0.52453,0.0269 -0.83817,0.0492 -0.36289,0.0259 -0.61968,0.0296 -0.70619,0.01 -0.0747,-0.0168 -0.22884,-0.0259 -0.34238,-0.0202 -0.11356,0.005 -0.20647,-0.002 -0.20647,-0.0177 0,-0.0154 -0.0651,-0.0379 -0.14462,-0.0498 -0.32246,-0.0484 -0.99409,-0.4619 -0.99409,-0.61209 0,-0.0682 0.0602,-0.052 0.19454,0.0523 0.0679,0.0527 0.19898,0.11585 0.29109,0.14012 0.0921,0.0243 0.24835,0.0797 0.34722,0.12304 0.25409,0.11151 0.59744,0.1478 1.31061,0.13854 0.34078,-0.004 0.70248,-0.009 0.80379,-0.01 0.10133,-0.001 0.19281,-0.0137 0.20334,-0.0278 0.0167,-0.0226 0.38694,-0.052 0.91862,-0.0729 0.2183,-0.009 0.56025,-0.0547 0.60285,-0.0813 0.0339,-0.0211 0.57985,-0.10658 0.70332,-0.11009 0.0646,-0.002 0.33063,-0.0761 0.46889,-0.13075 0.0369,-0.0146 0.14501,-0.0511 0.24039,-0.0811 0.0954,-0.03 0.2922,-0.12667 0.43739,-0.21486 0.14519,-0.0882 0.32687,-0.18808 0.40372,-0.22198 0.0768,-0.0339 0.13175,-0.0697 0.12196,-0.0794 -0.01,-0.01 0.0583,-0.0513 0.15131,-0.0923 0.093,-0.041 0.16909,-0.0914 0.16909,-0.11172 0,-0.0205 -0.0534,-0.0594 -0.11868,-0.0867 -0.0653,-0.0273 -0.12672,-0.0706 -0.13656,-0.0962 -0.025,-0.0652 -0.0848,-0.0827 -0.3587,-0.10527 -0.13158,-0.0109 -0.26481,-0.0334 -0.29607,-0.0501 -0.0313,-0.0167 -0.0993,-0.0309 -0.15115,-0.0314 -0.0519,-4.3e-4 -0.1998,-0.0302 -0.32874,-0.066 -0.12894,-0.0358 -0.30479,-0.0654 -0.39079,-0.066 -0.19458,-0.001 -0.26333,-0.0263 -0.23985,-0.0874 0.0111,-0.0289 -0.003,-0.0475 -0.0356,-0.0475 -0.0296,0 -0.0538,-0.0208 -0.0538,-0.0463 0,-0.0255 -0.0315,-0.0546 -0.07,-0.0647 -0.0531,-0.0139 -0.0647,-0.0351 -0.0479,-0.0878 0.0151,-0.0476 0.005,-0.0761 -0.0317,-0.0902 -0.0856,-0.0328 -0.1625,-0.21722 -0.15653,-0.37498 0.007,-0.16563 0.0812,-0.2836 0.21118,-0.33268 0.0839,-0.0317 0.0913,-0.0512 0.11321,-0.30324 0.0199,-0.22809 0.0361,-0.28034 0.10581,-0.34099 0.0459,-0.0399 0.0742,-0.0929 0.0639,-0.11969 -0.012,-0.0314 0.004,-0.048 0.0455,-0.048 0.0351,0 0.0721,-0.0131 0.082,-0.0291 0.01,-0.0161 0.0673,-0.0394 0.12757,-0.0519 0.10111,-0.0209 0.10483,-0.0262 0.0487,-0.0683 -0.0542,-0.0406 -0.0395,-0.0476 0.13397,-0.0637 0.41369,-0.0385 0.46257,-0.0538 0.50924,-0.15929 0.024,-0.0542 0.0351,-0.12073 0.0247,-0.14785 -0.0109,-0.0271 -0.008,-0.0494 0.005,-0.0495 0.0132,-7e-5 0.10571,-0.062 0.20543,-0.13764 0.0998,-0.0756 0.22622,-0.15313 0.28106,-0.17224 0.0548,-0.0191 0.17668,-0.10756 0.27077,-0.19663 0.0941,-0.0891 0.19184,-0.16216 0.21722,-0.16252 0.0884,-0.001 0.47672,-0.21301 0.51221,-0.2793 0.021,-0.0393 0.0271,-0.14054 0.0147,-0.24574 -0.0131,-0.1119 -0.009,-0.17894 0.0128,-0.17894 0.0186,0 0.0338,-0.0231 0.0338,-0.0513 0,-0.0282 0.0264,-0.0608 0.0587,-0.0726 0.0323,-0.0116 0.12108,-0.0753 0.19742,-0.14128 0.15195,-0.13146 0.37366,-0.2927 0.5105,-0.37127 0.0481,-0.0277 0.0932,-0.0638 0.10034,-0.0803 0.0213,-0.0499 0.20502,-0.23327 0.28892,-0.28831 0.0432,-0.0283 0.13835,-0.10679 0.21138,-0.1744 0.073,-0.0675 0.14122,-0.11441 0.15153,-0.10406 0.0268,0.0268 0.12242,-0.0759 0.12242,-0.13146 0,-0.11326 0.10971,-0.40004 0.17716,-0.46307 0.0911,-0.0852 0.42073,-0.29896 0.46093,-0.29896 0.0162,0 0.0789,-0.0432 0.13942,-0.0961 0.0605,-0.0529 0.18913,-0.13734 0.28584,-0.18772 0.0967,-0.0503 0.17583,-0.10285 0.17583,-0.1165 0,-0.0137 0.0606,-0.0487 0.13476,-0.0778 0.0757,-0.0298 0.13074,-0.0723 0.1256,-0.0972 -0.007,-0.0304 0.0301,-0.0442 0.11644,-0.0442 0.14262,0 0.14664,-0.008 0.07,-0.1415 -0.0633,-0.11042 -0.0423,-0.25815 0.0414,-0.29027 0.06,-0.023 0.17863,0.0976 0.18044,0.18339 0.002,0.0886 0.0395,0.0987 0.1313,0.0351 0.0481,-0.0334 0.11085,-0.0689 0.13938,-0.0791 0.073,-0.0262 0.14434,-0.26541 0.0895,-0.30026 -0.0291,-0.0185 -0.0255,-0.0262 0.0128,-0.0265 0.0296,-2.9e-4 0.0943,-0.0382 0.14407,-0.0843 0.0497,-0.0461 0.11255,-0.0837 0.13969,-0.0837 0.0705,0 0.4952,-0.21858 0.5477,-0.28185 0.0242,-0.0292 0.0629,-0.0531 0.0861,-0.0531 0.0231,0 0.0595,-0.021 0.0809,-0.0467 0.0213,-0.0257 0.0921,-0.0568 0.15725,-0.0689 0.0651,-0.0122 0.16635,-0.0514 0.22487,-0.0871 0.0585,-0.0357 0.16169,-0.0649 0.22927,-0.065 0.15423,-1.9e-4 0.2288,-0.028 0.2288,-0.0856 0,-0.0246 0.0334,-0.0681 0.0741,-0.0966 0.0871,-0.0611 0.14804,-0.23575 0.21103,-0.60502 0.0252,-0.14736 0.0565,-0.32679 0.0697,-0.39873 0.0175,-0.0953 0.0136,-0.12432 -0.0147,-0.10691 -0.0244,0.0151 -0.0387,-8.5e-4 -0.0387,-0.043 0,-0.0369 -0.0129,-0.075 -0.0286,-0.0847 -0.0356,-0.022 -0.10537,0.12577 -0.10537,0.22294 0,0.0563 -0.009,0.0633 -0.0404,0.0317 -0.0315,-0.0315 -0.0313,-0.0744 8.7e-4,-0.19542 0.0229,-0.0852 0.035,-0.16149 0.0271,-0.16939 -0.008,-0.008 -0.0551,0.0717 -0.10493,0.17692 -0.0607,0.12837 -0.0992,0.17721 -0.11701,0.14844 -0.018,-0.0291 -0.0642,-0.0358 -0.14428,-0.0208 -0.0817,0.0153 -0.12266,0.009 -0.13373,-0.0207 -0.011,-0.0281 -0.0251,-0.0199 -0.0425,0.0242 -0.053,0.1336 -0.14868,0.15516 -0.14868,0.0335 0,-0.10832 -0.0595,-0.10832 -0.0868,0 -0.0116,0.0461 -0.0407,0.0837 -0.0648,0.0837 -0.0241,0 -0.0516,0.0188 -0.0611,0.0419 -0.0109,0.0253 -0.0265,0.0116 -0.0404,-0.0344 -0.0224,-0.074 -0.0263,-0.0726 -0.13483,0.0502 -0.10132,0.11464 -0.11183,0.11939 -0.1131,0.0511 -0.002,-0.095 -0.0545,-0.0984 -0.079,-0.005 -0.01,0.0387 -0.0333,0.0612 -0.0514,0.0499 -0.0182,-0.0113 -0.0588,0.005 -0.09,0.0367 -0.0932,0.0932 -0.34426,0.2148 -0.36711,0.17783 -0.0311,-0.0503 -0.0836,-0.0399 -0.0836,0.0165 0,0.0274 -0.0546,0.0725 -0.12131,0.10045 -0.14299,0.0597 -0.15735,0.0616 -0.12987,0.0172 0.0114,-0.0185 0.007,-0.0335 -0.0112,-0.0335 -0.0175,0 -0.0407,0.023 -0.0515,0.0511 -0.0134,0.0349 -0.045,0.0447 -0.0999,0.0309 -0.059,-0.0148 -0.1033,0.002 -0.16634,0.0659 -0.0473,0.0473 -0.10701,0.0779 -0.13272,0.0681 -0.0257,-0.01 -0.0661,0.005 -0.0897,0.0338 -0.0236,0.0285 -0.0648,0.0518 -0.0915,0.0518 -0.0267,0 -0.11412,0.0384 -0.19426,0.0854 -0.13033,0.0764 -0.14892,0.0797 -0.17618,0.031 -0.0269,-0.0481 -0.0423,-0.0444 -0.13361,0.0323 -0.0716,0.0602 -0.10778,0.0737 -0.11823,0.0444 -0.011,-0.0294 -0.0417,-0.0178 -0.10242,0.0379 -0.0699,0.0642 -0.097,0.0723 -0.13555,0.0403 -0.039,-0.0323 -0.0725,-0.0187 -0.17405,0.0705 -0.12012,0.10549 -0.13805,0.11046 -0.39652,0.11046 -0.23014,0 -0.29999,0.0144 -0.46608,0.096 -0.15769,0.0775 -0.22142,0.0918 -0.33043,0.0743 -0.11269,-0.018 -0.15343,-0.008 -0.24615,0.0631 -0.12449,0.095 -0.17901,0.11094 -0.1149,0.0337 0.0659,-0.0793 0.008,-0.10231 -0.0989,-0.0393 -0.053,0.0313 -0.14038,0.0569 -0.19433,0.0569 -0.0539,0 -0.1092,0.011 -0.12278,0.0246 -0.0136,0.0136 -0.0725,0.0273 -0.13118,0.0307 -0.25837,0.0147 -0.398,0.0385 -0.43343,0.074 -0.0581,0.0581 -0.0874,0.0456 -0.0679,-0.0289 0.0131,-0.0501 8.7e-4,-0.067 -0.0478,-0.067 -0.0359,0 -0.0757,0.0109 -0.0885,0.0232 -0.0128,0.0128 -0.0555,0.0281 -0.0951,0.0341 -0.0395,0.005 -0.0922,0.0279 -0.11717,0.0486 -0.0249,0.0207 -0.0544,0.0284 -0.0655,0.0174 -0.0111,-0.0111 -0.0639,0.002 -0.11739,0.0301 -0.0535,0.0277 -0.11094,0.0418 -0.12771,0.0314 -0.0167,-0.01 -0.0795,0.0111 -0.13957,0.0475 -0.0708,0.043 -0.12238,0.0553 -0.14689,0.035 -0.0243,-0.0201 -0.10275,-0.008 -0.21856,0.0347 -0.0995,0.0363 -0.24899,0.0805 -0.33239,0.0982 -0.36659,0.0776 -0.42376,0.0927 -0.4956,0.13139 -0.0418,0.0224 -0.0915,0.0314 -0.11032,0.0197 -0.0188,-0.0116 -0.0524,-0.008 -0.0746,0.01 -0.0598,0.0459 -0.47146,0.10745 -0.77479,0.11588 -0.29582,0.008 -0.34876,-0.0285 -0.21754,-0.15074 0.084,-0.0784 0.37317,-0.23602 0.50212,-0.27389 0.34976,-0.10275 1.32871,-0.47077 1.62021,-0.60914 0.0911,-0.0432 0.1836,-0.0787 0.20551,-0.0787 0.0219,0 0.21111,-0.0695 0.42045,-0.15453 0.20932,-0.085 0.47855,-0.19329 0.59828,-0.24067 0.11974,-0.0474 0.23381,-0.098 0.2535,-0.11247 0.0197,-0.0145 0.13821,-0.0501 0.26336,-0.0791 0.12514,-0.029 0.28989,-0.0811 0.36609,-0.1156 0.25276,-0.11464 0.57098,-0.24274 0.80837,-0.32542 0.12894,-0.0449 0.50572,-0.18752 0.83729,-0.31693 0.33157,-0.12941 0.79878,-0.31066 1.03823,-0.40279 0.23947,-0.0921 0.50322,-0.19547 0.58611,-0.22964 0.0829,-0.0341 0.28635,-0.10942 0.45213,-0.16718 0.42093,-0.14669 0.95902,-0.34454 1.25594,-0.46179 0.13814,-0.0545 0.37929,-0.14007 0.53586,-0.19005 0.15658,-0.05 0.36756,-0.13306 0.46888,-0.18464 0.22692,-0.11554 1.93482,-0.6685 2.22799,-0.72136 0.0732,-0.0132 0.17085,-0.0434 0.21689,-0.0672 0.13312,-0.0686 0.8828,-0.31424 1.06421,-0.34865 0.0908,-0.0173 0.25377,-0.0719 0.36214,-0.12144 0.10833,-0.0496 0.29366,-0.11033 0.41177,-0.13505 0.11812,-0.0247 0.23995,-0.0677 0.27074,-0.0956 0.0522,-0.0473 0.32249,-0.15341 0.55372,-0.21749 0.0791,-0.0219 0.0849,-0.0286 0.0271,-0.0313 -0.0404,-0.002 -0.0839,-0.0206 -0.0968,-0.0415 -0.0169,-0.0274 0.018,-0.0318 0.12448,-0.0159 0.12212,0.0183 0.17707,0.007 0.31456,-0.0658 0.14898,-0.0787 0.35706,-0.18941 0.66589,-0.35431 0.0569,-0.0304 0.13868,-0.093 0.18162,-0.13901 l 0.078,-0.0837 0.21928,0.0995 c 0.18982,0.0861 0.23187,0.0942 0.31303,0.0606 0.12497,-0.0518 0.22036,-0.15878 0.17868,-0.20046 -0.0502,-0.0502 -0.35544,-0.0982 -0.59807,-0.094 -0.12104,0.002 -0.22985,-0.005 -0.24178,-0.018 -0.0119,-0.0119 0.057,-0.0217 0.15331,-0.0217 0.0995,0 0.16671,-0.0135 0.15575,-0.0312 -0.0109,-0.0172 -0.003,-0.0409 0.0156,-0.0527 0.0449,-0.0277 0.23972,0.0143 0.21933,0.0473 -0.009,0.0137 0.082,0.0443 0.20102,0.0679 0.21249,0.0422 0.21852,0.0415 0.331,-0.0444 0.063,-0.048 0.15329,-0.10209 0.2006,-0.1201 0.10614,-0.0404 0.11235,-0.12786 0.0109,-0.14987 -0.0415,-0.009 -0.14317,-0.0303 -0.22606,-0.0473 -0.12147,-0.025 -0.13122,-0.0315 -0.0502,-0.034 0.0553,-0.002 0.20132,0.0184 0.32456,0.0445 0.22536,0.0477 0.24154,0.0462 0.54622,-0.0547 0.20033,-0.0663 0.33784,-0.0928 0.48562,-0.0934 0.14257,-4.4e-4 0.46897,-0.0933 0.46882,-0.13318 -4e-5,-0.01 0.18458,-0.0109 0.41027,-0.001 0.22569,0.01 0.45831,0.008 0.51695,-0.004 0.0729,-0.0147 0.13649,-0.003 0.20095,0.0359 0.11784,0.0716 0.46009,0.11904 0.4239,0.0588 -0.0185,-0.0307 -0.0127,-0.0313 0.0241,-0.002 0.0266,0.0209 0.11612,0.0491 0.19902,0.0626 0.0828,0.0135 0.20663,0.0529 0.27497,0.0875 0.0683,0.0347 0.1663,0.063 0.2177,0.0631 0.0514,9e-5 0.13755,0.0232 0.19147,0.0513 0.0539,0.0281 0.12174,0.0476 0.15072,0.0433 0.029,-0.004 0.0988,0.0169 0.15529,0.0468 0.0687,0.0364 0.14725,0.0486 0.23745,0.0364 0.11661,-0.0156 0.15083,-0.004 0.25345,0.0861 0.0652,0.0572 0.14039,0.10417 0.16698,0.10417 0.0266,0 0.0837,0.0376 0.12701,0.0837 0.0513,0.0547 0.11499,0.0837 0.18334,0.0837 0.0576,0 0.12277,0.0181 0.14488,0.0402 0.0262,0.0262 0.0402,0.0276 0.0402,0.004 0,-0.051 -0.0678,-0.0983 -0.17978,-0.12504 -0.13345,-0.032 -0.0875,-0.0625 0.0541,-0.0359 0.087,0.0163 0.14582,0.0622 0.23808,0.18578 0.0674,0.0903 0.16009,0.17353 0.20602,0.18506 0.046,0.0115 0.0835,0.0405 0.0835,0.0644 0,0.0239 0.0551,0.10887 0.12243,0.18895 l 0.12244,0.14551 -0.0202,-0.13397 c -0.019,-0.12599 -0.0176,-0.12898 0.0238,-0.0502 0.0242,0.0461 0.0542,0.1396 0.0664,0.20788 0.0139,0.077 0.0569,0.15124 0.11326,0.1956 0.0847,0.0666 0.0911,0.09 0.0955,0.34473 l 0.004,0.27329 0.0958,-0.01 c 0.0913,-0.009 0.0927,-0.007 0.0313,0.0416 -0.0826,0.0651 -0.0426,0.10778 0.0562,0.06 0.14252,-0.069 0.32248,-0.0763 0.35852,-0.0144 0.0181,0.0311 0.0334,0.0389 0.0339,0.0177 0.002,-0.0744 0.13456,-0.003 0.20437,0.10958 0.0876,0.1418 0.0714,0.22068 -0.0254,0.12382 -0.038,-0.038 -0.0756,-0.0887 -0.0836,-0.11278 -0.009,-0.0257 -0.0379,-0.0347 -0.0712,-0.022 -0.0402,0.0154 -0.0566,0.0608 -0.0566,0.15673 0,0.14591 0.0204,0.16575 0.0827,0.0805 0.0318,-0.0436 0.0538,-0.0469 0.10981,-0.0171 0.0766,0.041 0.26507,0.0165 0.29933,-0.039 0.0132,-0.0214 0,-0.0266 -0.0341,-0.0135 -0.0367,0.014 -0.0557,0.004 -0.0557,-0.0287 0,-0.0442 0.0116,-0.044 0.0988,8.6e-4 0.0544,0.0281 0.17175,0.0511 0.26089,0.0511 0.37984,0 0.72721,0.16193 0.96198,0.44844 0.086,0.10494 0.15893,0.15653 0.25619,0.18122 0.13327,0.0338 0.13688,0.0324 0.18132,-0.0714 0.0249,-0.0583 0.0906,-0.14792 0.14589,-0.19913 0.0553,-0.0512 0.1107,-0.12516 0.12313,-0.16432 0.0125,-0.0392 0.0565,-0.10275 0.0978,-0.14133 0.0414,-0.0385 0.11709,-0.15289 0.16821,-0.25404 0.0511,-0.10122 0.11088,-0.19913 0.13279,-0.2177 0.0872,-0.074 0.25239,-0.38023 0.25461,-0.47209 0.002,-0.0847 0.007,-0.0887 0.0311,-0.0305 0.0159,0.0369 0.0299,0.0514 0.0311,0.0324 0.002,-0.0321 0.19896,-0.35863 0.26173,-0.43427 0.0153,-0.0185 0.0487,-0.0862 0.0743,-0.15071 0.0256,-0.0644 0.0722,-0.1549 0.10374,-0.20095 0.0315,-0.0461 0.0919,-0.15908 0.13421,-0.25119 0.0689,-0.14993 0.20566,-0.40199 0.46324,-0.85403 0.0473,-0.0828 0.10362,-0.19592 0.12526,-0.25119 0.0217,-0.0553 0.10111,-0.25008 0.1765,-0.43294 0.0754,-0.18287 0.13709,-0.35117 0.13709,-0.37399 0,-0.0229 0.0113,-0.0465 0.0251,-0.0526 0.053,-0.0235 0.17584,-0.22932 0.17584,-0.29448 0,-0.0375 0.0128,-0.0684 0.0286,-0.0684 0.0156,0 0.0944,-0.12692 0.17493,-0.28204 0.0805,-0.15512 0.1581,-0.27479 0.1724,-0.26595 0.0143,0.009 0.026,-0.014 0.026,-0.0509 0,-0.077 0.0547,-0.12452 0.0746,-0.0648 0.0148,0.0443 -0.19241,0.48416 -0.23643,0.50184 -0.0323,0.013 -0.24008,0.44582 -0.24008,0.50017 0,0.0377 -0.0469,0.15168 -0.18746,0.45501 -0.0442,0.0955 -0.0804,0.18179 -0.0804,0.19165 0,0.0195 -0.11728,0.28272 -0.2718,0.61026 -0.0533,0.11294 -0.11943,0.22404 -0.14698,0.24691 -0.0276,0.0229 -0.0501,0.0615 -0.0501,0.0859 0,0.0244 -0.0533,0.13534 -0.11853,0.24657 -0.0652,0.11122 -0.13908,0.25899 -0.1642,0.32834 -0.0556,0.15345 -0.26555,0.55673 -0.43185,0.82942 -0.0674,0.11053 -0.12258,0.21864 -0.12263,0.24025 0,0.0217 -0.0356,0.0818 -0.079,0.13396 -0.0929,0.11144 -0.29917,0.46767 -0.53454,0.92331 -0.0927,0.17944 -0.1765,0.3183 -0.18621,0.30859 -0.01,-0.01 -0.037,0.0469 -0.0606,0.12586 -0.0958,0.3202 0.0477,0.50166 0.38555,0.48789 0.0982,-0.004 0.18507,-0.0181 0.19325,-0.0313 0.0222,-0.036 0.37037,-0.19577 0.42658,-0.19577 0.0521,0 0.66036,-0.23784 0.81636,-0.31921 0.0514,-0.0268 0.11409,-0.0489 0.13925,-0.049 0.0252,-1e-4 0.15446,-0.0511 0.28736,-0.11336 0.13289,-0.0623 0.27455,-0.12362 0.31479,-0.13639 0.0403,-0.0128 0.3741,-0.17284 0.74191,-0.35573 0.36781,-0.18287 0.67755,-0.33249 0.68831,-0.33249 0.011,0 0.0675,-0.0356 0.1262,-0.0791 0.12927,-0.096 0.66254,-0.35527 0.80653,-0.3922 0.4971,-0.12748 0.89093,-0.18639 0.89093,-0.13329 0,0.0314 -0.16677,0.0687 -0.30728,0.0687 -0.0538,0 -0.13864,0.0206 -0.18839,0.0457 -0.0497,0.0252 -0.16881,0.0641 -0.2646,0.0867 -0.0957,0.0225 -0.19184,0.0622 -0.21342,0.0882 -0.0216,0.026 -0.0581,0.0473 -0.0812,0.0473 -0.059,0 -0.36488,0.14478 -0.60291,0.28534 -0.11052,0.0653 -0.23109,0.13392 -0.26794,0.15254 -0.0741,0.0374 -0.14422,0.0788 -0.31863,0.18756 -0.0642,0.0401 -0.18779,0.0907 -0.27461,0.11252 -0.0869,0.0218 -0.15465,0.0534 -0.15072,0.0702 0.009,0.0364 -0.18135,0.13857 -0.61244,0.32927 -0.28287,0.12513 -0.6592,0.30176 -0.70234,0.32964 -0.009,0.005 0.007,0.0257 0.0335,0.0446 0.0362,0.0253 0.0193,0.0293 -0.0638,0.0149 -0.10734,-0.0186 -0.34676,0.0716 -0.71554,0.26953 -0.0504,0.0271 -0.16844,0.072 -0.26213,0.0999 -0.24407,0.0724 -0.52406,0.26105 -0.58023,0.39077 -0.0256,0.0593 -0.0689,0.13699 -0.0962,0.17264 -0.0449,0.0588 -0.0388,0.0871 0.0635,0.30048 0.0622,0.12962 0.11311,0.26624 0.11331,0.30359 4.3e-4,0.0904 0.17906,0.1668 0.5048,0.21615 0.31681,0.048 0.74129,0.17508 0.75864,0.22711 0.008,0.0216 -0.0187,0.0708 -0.0573,0.10954 l -0.0705,0.0705 0.0697,0.0979 c 0.10045,0.141 0.1426,0.15081 1.23909,0.28838 0.65573,0.0823 1.96367,0.18935 2.26067,0.18508 0.0553,-8.5e-4 0.23612,0.0198 0.40189,0.0457 0.16579,0.0259 0.32404,0.0446 0.35167,0.0415 0.0449,-0.005 0.15775,0.004 0.74703,0.062 0.40001,0.0392 1.11822,0.1548 1.54714,0.24898 0.25788,0.0567 0.56684,0.12285 0.68657,0.14716 0.11974,0.0243 0.2706,0.0674 0.33527,0.0958 0.14682,0.0645 0.30107,0.20483 0.30107,0.274 0,0.0712 -0.19495,0.18496 -0.31816,0.18552 -0.32337,0.001 -0.99947,-0.1129 -1.2057,-0.20392 -0.11022,-0.0487 -0.35196,-0.0925 -0.63634,-0.11541 -0.14736,-0.0118 -0.37343,-0.0438 -0.50238,-0.0708 -0.12894,-0.027 -0.36254,-0.0636 -0.51911,-0.0811 -0.15657,-0.0175 -0.36757,-0.0461 -0.46888,-0.0635 -0.2464,-0.0423 -1.37288,-0.15719 -1.97601,-0.20141 -0.5404,-0.0396 -0.91478,-0.0821 -1.33965,-0.15207 -0.36431,-0.06 -0.76601,-0.11197 -1.0215,-0.13217 -0.33439,-0.0265 -0.79431,-0.0857 -0.82815,-0.10658 -0.0175,-0.0109 -0.20596,-0.0783 -0.41875,-0.14999 -0.29319,-0.0987 -0.39782,-0.12125 -0.432,-0.0929 -0.0344,0.0286 -0.0502,0.0243 -0.0664,-0.0181 -0.0117,-0.0305 -0.0792,-0.085 -0.15006,-0.12114 -0.12324,-0.0629 -0.13497,-0.0632 -0.27218,-0.009 -0.0789,0.0311 -0.15092,0.065 -0.16012,0.0755 -0.0245,0.0278 -0.12167,0.0386 -0.38515,0.0426 -0.24901,0.004 -0.46551,-0.0676 -0.6698,-0.22098 -0.0553,-0.0415 -0.12644,-0.085 -0.15813,-0.0966 -0.0317,-0.0117 -0.0681,-0.0634 -0.0809,-0.11475 -0.0128,-0.0514 -0.0592,-0.13121 -0.10318,-0.17726 -0.32088,-0.33611 -0.48322,-0.54302 -0.53209,-0.67821 -0.0253,-0.0699 -0.27031,-0.0812 -0.45214,-0.0208 -0.17512,0.0582 -0.43201,0.32253 -0.43201,0.44451 0,0.14664 0.0655,0.47931 0.136,0.68984 0.0339,0.10132 0.10023,0.33492 0.14737,0.51912 0.0472,0.18421 0.0995,0.3726 0.11622,0.41865 0.0787,0.21626 0.39847,1.27951 0.53747,1.78712 0.0618,0.22591 0.17862,0.55355 0.23641,0.66343 0.0162,0.0308 0.0599,0.17393 0.0971,0.31817 0.12208,0.47346 0.40917,1.26775 0.64285,1.77858 0.0529,0.1156 0.0962,0.22136 0.0962,0.23505 0,0.0137 0.0376,0.0803 0.0837,0.14809 0.0461,0.0677 0.0837,0.14862 0.0837,0.17965 0,0.0892 0.1288,0.27422 0.22784,0.32739 0.0497,0.0267 0.23873,0.12561 0.42008,0.21986 0.18137,0.0942 0.39236,0.21417 0.46889,0.26646 0.0765,0.0523 0.41634,0.23407 0.75517,0.40393 0.33881,0.16985 0.67038,0.34273 0.73681,0.38416 0.51455,0.32099 1.57503,0.83314 1.97956,0.95604 0.19341,0.0588 0.41245,0.12837 0.48675,0.1547 0.0743,0.0264 0.16096,0.0479 0.19257,0.0479 0.0316,0 0.0574,0.0151 0.0574,0.0335 0,0.0184 0.0339,0.0337 0.0754,0.0339 0.0415,1.8e-4 0.14908,0.0228 0.2392,0.05 0.0902,0.0274 0.21068,0.0524 0.26793,0.0557 0.0572,0.003 0.12925,0.0183 0.16001,0.0334 0.0512,0.0251 0.50216,0.10319 0.58041,0.10045 0.18539,-0.007 0.40524,-0.0477 0.49136,-0.0922 0.0581,-0.0301 0.1947,-0.0627 0.30359,-0.0726 0.13347,-0.012 0.18354,-0.0279 0.15366,-0.0485 -0.0276,-0.019 0.0254,-0.0223 0.13987,-0.009 0.10865,0.0129 0.21039,0.0472 0.24809,0.0835 0.0603,0.0582 0.0608,0.0664 0.008,0.14702 -0.0307,0.0469 -0.0934,0.0948 -0.13924,0.10625 -0.0459,0.0115 -0.0833,0.0307 -0.0833,0.0428 0,0.0229 -0.25547,0.10012 -0.65308,0.19734 -0.27957,0.0684 -1.05954,0.078 -1.08107,0.0134 -0.008,-0.0214 -0.0485,-0.0389 -0.0919,-0.0389 -0.0434,0 -0.0874,-0.0138 -0.0978,-0.0305 -0.0109,-0.0169 -0.0828,-0.0412 -0.16106,-0.0543 -0.0782,-0.013 -0.20998,-0.0535 -0.29288,-0.09 -0.20195,-0.0887 -0.25089,-0.10679 -0.48562,-0.17889 -0.11053,-0.0339 -0.22356,-0.0719 -0.25119,-0.0844 -0.0835,-0.0376 -0.37755,-0.12539 -0.50237,-0.14992 -0.11216,-0.0221 -0.43019,-0.17935 -0.53587,-0.26506 -0.0277,-0.0224 -0.11806,-0.0669 -0.20094,-0.0987 -0.0829,-0.0319 -0.21854,-0.10012 -0.30144,-0.15171 -0.19223,-0.11957 -1.17353,-0.60451 -1.22323,-0.60451 -0.0207,0 -0.0967,-0.0448 -0.16906,-0.0996 -0.0723,-0.0547 -0.14431,-0.10001 -0.15989,-0.10045 -0.0155,-4.3e-4 -0.0683,-0.029 -0.11721,-0.0634 -0.0489,-0.0342 -0.28483,-0.16469 -0.5243,-0.28974 -0.23946,-0.12505 -0.46511,-0.24769 -0.50145,-0.27253 -0.10362,-0.0709 -0.11555,-0.0543 -0.0513,0.0718 0.0478,0.0938 0.39982,0.58414 0.46902,0.65332 0.009,0.009 0.0908,0.0997 0.18144,0.20096 0.0906,0.10132 0.27962,0.30477 0.42008,0.45213 0.22965,0.24096 0.31686,0.34563 0.60417,0.72515 0.0461,0.0608 0.13071,0.16369 0.18813,0.22859 0.0575,0.0649 0.11502,0.15212 0.12801,0.19384 0.013,0.0417 0.0375,0.0672 0.0547,0.0566 0.0171,-0.0109 0.0311,0.002 0.0311,0.029 0,0.0265 0.18847,0.24218 0.41881,0.47923 0.23034,0.23705 0.42777,0.45893 0.43874,0.49306 0.0109,0.0341 0.0561,0.11536 0.10034,0.18051 0.0442,0.0651 0.0804,0.14533 0.0804,0.17817 0,0.0328 0.0346,0.10231 0.0768,0.15442 0.0422,0.0521 0.14957,0.23785 0.23855,0.41285 0.089,0.17498 0.19729,0.36571 0.24069,0.42383 0.0434,0.0581 0.11043,0.19376 0.14898,0.30142 0.0726,0.20271 0.12187,0.32621 0.16545,0.41455 0.0139,0.0282 0.0365,0.10362 0.0502,0.16746 0.0137,0.0639 0.0337,0.13092 0.0445,0.14902 0.0109,0.0181 0.0228,0.0558 0.0267,0.0837 0.0557,0.39703 0.0556,0.40479 -0.008,0.52221 -0.0938,0.17446 -0.27942,0.27354 -0.4318,0.23051 z m -11.09311,-11.2731 c 0.0181,-0.0117 0.0214,-0.0397 0.008,-0.0622 -0.0194,-0.0314 -0.0319,-0.0303 -0.0541,0.004 -0.0241,0.038 -0.0289,0.0378 -0.0293,-0.001 -2.9e-4,-0.0256 -0.0269,-0.0678 -0.0591,-0.094 -0.0522,-0.0422 -0.0498,-0.0431 0.0219,-0.008 0.0705,0.0343 0.0777,0.0322 0.0587,-0.0176 -0.012,-0.0313 -0.0218,-0.0682 -0.0218,-0.0821 0,-0.0138 -0.0227,-0.0252 -0.0502,-0.0252 -0.0277,0 -0.0502,0.0126 -0.0502,0.0279 0,0.0153 -0.0147,0.0279 -0.0327,0.0279 -0.0184,0 -0.024,-0.0437 -0.0127,-0.0997 0.0216,-0.10756 -0.14513,-0.54711 -0.19561,-0.5159 -0.0148,0.009 -0.0269,-1.9e-4 -0.0269,-0.0208 0,-0.062 -0.0687,3.8e-4 -0.10472,0.095 -0.0185,0.0487 -0.0345,0.14733 -0.0354,0.2193 -0.002,0.11707 0.0172,0.14759 0.17804,0.28987 0.0989,0.0874 0.19152,0.15198 0.20579,0.14336 0.0143,-0.009 0.0219,-0.003 0.017,0.0119 -0.0143,0.044 0.123,0.21012 0.13796,0.16684 0.008,-0.0213 0.0281,-0.0484 0.0462,-0.0602 z m -7.82442,-3.05985 c 0.0661,-0.0277 0.15606,-0.0502 0.19987,-0.0502 0.11191,0 0.0994,-0.0459 -0.0452,-0.16502 -0.15961,-0.13157 -0.0979,-0.13355 0.0947,-0.003 0.20906,0.14166 0.31567,0.13199 0.63205,-0.0573 0.1456,-0.0871 0.25825,-0.16485 0.25035,-0.17275 -0.008,-0.008 0.002,-0.0339 0.0218,-0.0579 0.0199,-0.024 0.0267,-0.0865 0.0152,-0.13916 -0.0156,-0.0712 -0.0526,-0.10745 -0.1453,-0.14203 l -0.12431,-0.0464 0.10045,-0.0188 0.10044,-0.0188 -0.12635,-0.0601 c -0.0941,-0.0448 -0.16494,-0.0543 -0.27763,-0.0374 -0.11721,0.0176 -0.16513,0.01 -0.2129,-0.033 -0.0581,-0.0525 -0.0628,-0.0513 -0.0815,0.0211 -0.0127,0.0492 -0.0686,0.0972 -0.15532,0.13328 -0.0745,0.031 -0.12928,0.0461 -0.12173,0.0335 0.008,-0.0126 0.002,-0.0832 -0.0123,-0.15686 l -0.026,-0.13396 -0.004,0.16266 c -0.003,0.12992 -0.014,0.15879 -0.054,0.1434 -0.0346,-0.0132 -0.0502,0.002 -0.0502,0.0495 0,0.13049 -0.0836,0.042 -0.101,-0.10691 l -0.0173,-0.14811 -0.0225,0.15037 c -0.0124,0.083 -0.0501,0.17302 -0.0842,0.20095 -0.12869,0.10537 -0.17692,0.21403 -0.17692,0.3985 0,0.28573 0.14351,0.37204 0.42381,0.25493 z m -0.29822,-0.40823 c -0.0323,-0.009 -0.0587,-0.0292 -0.0587,-0.0464 0,-0.0384 -0.01,-0.0395 0.1507,0.0183 0.10133,0.0366 0.11356,0.0477 0.0502,0.0459 -0.0461,-0.001 -0.1101,-0.01 -0.14234,-0.0177 z m 2.48675,-0.69698 c -0.0496,-0.0598 0.002,-0.0694 0.0979,-0.0182 0.0394,0.021 0.10493,0.019 0.19038,-0.005 0.0717,-0.0209 0.14971,-0.0391 0.17335,-0.0405 0.0236,-0.001 0.0564,-0.0241 0.0728,-0.0506 0.023,-0.037 0.0406,-0.0392 0.0765,-0.01 0.0568,0.0472 0.19285,-0.0337 0.19285,-0.1146 0,-0.039 0.0231,-0.046 0.0979,-0.0294 0.0828,0.0182 0.10961,0.005 0.17376,-0.0811 0.0533,-0.0721 0.10373,-0.10253 0.17002,-0.10253 0.0518,0 0.0942,-0.0151 0.0942,-0.0335 0,-0.0185 -0.0292,-0.0335 -0.065,-0.0335 -0.0358,0 -0.0727,-0.0124 -0.082,-0.0275 -0.01,-0.0151 0.0257,-0.0211 0.0779,-0.0135 0.0522,0.008 0.12994,-0.004 0.17282,-0.0278 l 0.0779,-0.0418 -0.079,-0.0292 c -0.11355,-0.042 -0.0632,-0.0703 0.0657,-0.0369 0.11858,0.0307 0.40094,-0.019 0.40094,-0.0707 0,-0.0171 0.0281,-0.005 0.0625,0.0255 0.0591,0.0534 0.0654,0.052 0.11722,-0.0271 0.0301,-0.0459 0.0548,-0.0992 0.0548,-0.11829 0,-0.046 0.0442,-0.044 0.0924,0.004 0.0446,0.0446 0.14209,-0.0164 0.14209,-0.089 0,-0.0549 0.0953,-0.13353 0.12542,-0.10341 0.0129,0.0128 0.001,0.0373 -0.0259,0.0545 -0.0421,0.0267 -0.0414,0.0313 0.005,0.0316 0.0339,3.8e-4 0.062,-0.0374 0.0745,-0.10001 0.0249,-0.12479 0.12224,-0.13811 0.12224,-0.0167 0,0.0461 0.0146,0.0837 0.0323,0.0837 0.0499,0 0.10166,-0.11836 0.10166,-0.23223 0,-0.13923 0.0481,-0.12972 0.0862,0.0171 0.0171,0.0659 0.0461,0.12035 0.0646,0.12115 0.0397,0.002 0.15574,-0.30609 0.13064,-0.34671 -0.01,-0.0154 -0.034,-0.0281 -0.0545,-0.0281 -0.0205,0 -0.0271,0.01 -0.0151,0.0221 0.0281,0.0281 -0.0405,0.11225 -0.0903,0.11091 -0.0208,-4.3e-4 -0.012,-0.0161 0.0195,-0.0344 0.0315,-0.0184 0.0489,-0.0549 0.0388,-0.0813 -0.012,-0.0314 0.0111,-0.0554 0.067,-0.0694 0.0469,-0.0118 0.10296,-0.0426 0.12437,-0.0684 0.0464,-0.0559 0.0323,-0.0579 -0.0927,-0.0132 -0.0848,0.0303 -0.0882,0.0289 -0.0333,-0.0139 0.0591,-0.046 0.0591,-0.0479 0,-0.0616 -0.044,-0.01 -0.03,-0.0229 0.0499,-0.0453 0.061,-0.0172 0.10865,-0.0443 0.10603,-0.0604 -0.002,-0.0161 0.0142,-0.041 0.0375,-0.0555 0.0273,-0.0169 -0.002,-0.0347 -0.083,-0.0498 -0.10767,-0.0202 -0.14609,-0.009 -0.27109,0.0811 -0.0801,0.0575 -0.15634,0.1046 -0.16941,0.1046 -0.0445,0 0.063,-0.10471 0.15785,-0.15379 0.10625,-0.0549 0.12003,-0.0972 0.0416,-0.1273 -0.0312,-0.012 -0.12549,0.0278 -0.22953,0.0968 -0.0972,0.0644 -0.19387,0.11721 -0.21499,0.11721 -0.0211,0 -0.0384,0.0228 -0.0384,0.0506 0,0.0417 -0.0114,0.0433 -0.0651,0.01 -0.0539,-0.0337 -0.0772,-0.0298 -0.13587,0.0234 -0.045,0.0407 -0.0645,0.089 -0.0535,0.13276 0.0282,0.11241 -0.0253,0.16244 -0.082,0.0766 -0.0744,-0.11265 -0.26649,-0.30425 -0.28571,-0.28503 -0.01,0.01 0.008,0.0701 0.0391,0.13489 0.0712,0.14932 0.0459,0.25342 -0.0989,0.40696 -0.10012,0.10614 -0.11083,0.11071 -0.0975,0.0413 0.0109,-0.0569 -0.0131,-0.10166 -0.0884,-0.165 -0.0568,-0.0478 -0.1033,-0.10111 -0.1033,-0.11851 0,-0.0439 -0.0976,-0.12073 -0.12218,-0.0962 -0.011,0.0111 0.01,0.0699 0.0453,0.1309 0.036,0.0609 0.0754,0.16333 0.0875,0.2275 l 0.0222,0.11669 -0.16714,-0.18342 c -0.18546,-0.20354 -0.2123,-0.17154 -0.0795,0.0949 0.0481,0.0966 0.0799,0.18351 0.0704,0.193 -0.01,0.01 -0.0665,-0.044 -0.12668,-0.11895 -0.132,-0.16426 -0.17718,-0.1747 -0.11832,-0.0274 0.0239,0.0599 0.0345,0.14342 0.0234,0.18568 -0.0172,0.0656 -0.0279,0.0705 -0.0737,0.0335 -0.0295,-0.0239 -0.0786,-0.0806 -0.10887,-0.12615 -0.0372,-0.0559 -0.0551,-0.0658 -0.0551,-0.0303 0,0.0796 0.0977,0.25873 0.16133,0.29586 0.0516,0.0301 0.0513,0.0329 -0.004,0.0339 -0.12225,0.002 -0.26693,-0.10527 -0.30543,-0.22662 -0.0129,-0.0406 -0.0385,-0.0738 -0.0569,-0.0738 -0.0367,0 -0.007,0.13061 0.0418,0.18253 0.0536,0.0575 0.034,0.15606 -0.0289,0.14549 -0.0418,-0.007 -0.0559,0.01 -0.0495,0.0571 0.008,0.0549 -0.005,0.0489 -0.0752,-0.0335 -0.0464,-0.0553 -0.0845,-0.11266 -0.0846,-0.12756 -1e-4,-0.0149 -0.0125,-0.0195 -0.0276,-0.01 -0.0151,0.01 -0.0209,-0.0275 -0.0129,-0.0817 0.009,-0.0589 -4.3e-4,-0.0987 -0.0229,-0.0987 -0.0233,0 -0.0373,0.0756 -0.0373,0.20095 0,0.19116 -0.004,0.20094 -0.0824,0.20094 -0.0453,0 -0.11104,0.0307 -0.14601,0.0683 l -0.0636,0.0683 -0.0602,-0.0935 c -0.0331,-0.0513 -0.0804,-0.10548 -0.10516,-0.12015 -0.0247,-0.0148 -0.0459,-0.0524 -0.047,-0.0837 -0.001,-0.0313 -0.0316,0.0335 -0.0676,0.14401 -0.036,0.11051 -0.0879,0.21768 -0.11511,0.23813 -0.0273,0.0205 -0.0496,0.057 -0.0496,0.0812 0,0.0269 -0.0342,0.0126 -0.0884,-0.0372 l -0.0884,-0.0812 0.0235,0.0979 c 0.0208,0.0862 0.0173,0.0928 -0.0288,0.0545 -0.0288,-0.0239 -0.0523,-0.0868 -0.0523,-0.13982 0,-0.0616 -0.0174,-0.0964 -0.0482,-0.0964 -0.0694,0 -0.091,0.0509 -0.0653,0.15329 0.0184,0.0732 0.0838,0.1189 0.36106,0.25225 0.3617,0.17396 0.42127,0.193 0.35537,0.11358 z m 1.94251,-1.48643 c 0,-0.0185 0.0151,-0.0428 0.0335,-0.0542 0.0184,-0.0114 0.0335,-0.005 0.0335,0.0128 0,0.0184 -0.0151,0.0428 -0.0335,0.0542 -0.0184,0.0114 -0.0335,0.005 -0.0335,-0.0128 z m 0.51911,-0.0709 c 0.0114,-0.0184 0.0394,-0.0335 0.0623,-0.0335 0.0229,0 0.0583,-0.0167 0.0789,-0.0373 0.0205,-0.0205 0.10263,-0.0418 0.18252,-0.0474 0.14481,-0.01 0.14459,-0.01 -0.0724,0.0702 -0.24223,0.0894 -0.2814,0.0968 -0.25118,0.0479 z m -0.21769,-0.0462 c 0,-0.007 0.0264,-0.0334 0.0587,-0.0587 0.0531,-0.0417 0.0543,-0.0405 0.0126,0.0126 -0.0438,0.0558 -0.0712,0.0735 -0.0712,0.046 z m -7.47755,12.16592 c 0.0226,-0.0229 0.0498,-0.0332 0.0601,-0.0229 0.01,0.01 -0.009,0.029 -0.0414,0.0416 -0.0477,0.0182 -0.0515,0.0143 -0.0187,-0.0187 z m -13.12601,-0.18618 c 0.0242,-0.01 0.0531,-0.009 0.0642,0.002 0.0112,0.0112 -0.009,0.019 -0.044,0.0176 -0.0391,-0.002 -0.0469,-0.01 -0.0202,-0.0202 z m 28.04131,-5.99164 c 0.002,-0.0391 0.01,-0.0469 0.0202,-0.0202 0.01,0.0242 0.009,0.0531 -0.002,0.0642 -0.0112,0.0112 -0.019,-0.009 -0.0176,-0.044 z M 144.2035,172.4772 c 0.0358,-0.0287 0.0797,-0.0521 0.0977,-0.0521 0.0426,0 0.0235,0.0154 -0.079,0.0643 -0.0789,0.0376 -0.08,0.0369 -0.0187,-0.0123 z m 0.34734,-0.67781 c 0.0242,-0.01 0.0531,-0.009 0.0642,0.002 0.0112,0.0112 -0.009,0.019 -0.044,0.0176 -0.0391,-0.002 -0.0469,-0.01 -0.0203,-0.0203 z m 17.7968,-1.60145 c 4.4e-4,-0.0553 0.009,-0.0739 0.0167,-0.0412 0.009,0.0326 0.008,0.0778 -0.001,0.10044 -0.009,0.0226 -0.0161,-0.004 -0.0154,-0.0592 z m 1.40277,-0.90707 c 0.002,-0.0391 0.01,-0.0469 0.0202,-0.0202 0.01,0.0242 0.009,0.0531 -0.002,0.0642 -0.0112,0.0112 -0.019,-0.009 -0.0176,-0.044 z m -2.96665,-0.41584 c 0.0114,-0.0185 0.0358,-0.0335 0.0542,-0.0335 0.0185,0 0.0242,0.0151 0.0128,0.0335 -0.0114,0.0185 -0.0358,0.0335 -0.0542,0.0335 -0.0184,0 -0.0242,-0.0151 -0.0128,-0.0335 z m -0.98799,-0.20096 c 0,-0.0184 0.016,-0.0335 0.0354,-0.0335 0.0195,0 0.0262,0.0151 0.0148,0.0335 -0.0114,0.0185 -0.0274,0.0335 -0.0354,0.0335 -0.008,0 -0.0148,-0.0151 -0.0148,-0.0335 z m -0.36322,-0.0369 c 0.0247,-0.0154 0.11287,-0.0367 0.19576,-0.047 0.0828,-0.0109 0.19291,-0.0257 0.24448,-0.0339 0.0563,-0.009 0.0857,-0.002 0.0734,0.018 -0.0112,0.0182 -0.0836,0.034 -0.16075,0.0353 -0.10636,0.002 -0.12413,0.009 -0.0734,0.0298 0.0455,0.0186 0.004,0.0271 -0.12877,0.0267 -0.11908,-3.9e-4 -0.17812,-0.0116 -0.15072,-0.0288 z m 8.57701,-0.45502 c 0.0323,-0.009 0.085,-0.009 0.11721,0 0.0323,0.009 0.005,0.0153 -0.0587,0.0153 -0.0644,0 -0.0908,-0.007 -0.0587,-0.0153 z m 0.24474,-0.0408 c -0.01,-0.0167 0.01,-0.0229 0.0444,-0.0138 0.0348,0.009 0.0725,0.002 0.0838,-0.0167 0.0113,-0.0183 0.0536,-0.0246 0.0941,-0.014 0.0701,0.0184 0.0706,0.0204 0.009,0.0448 -0.0917,0.0359 -0.2085,0.0358 -0.23071,-1e-4 z m -5.40817,-0.15663 c 0.002,-0.0391 0.01,-0.0469 0.0202,-0.0202 0.01,0.0242 0.009,0.0531 -0.002,0.0642 -0.0112,0.0112 -0.019,-0.009 -0.0176,-0.044 z m -3.84639,-0.24841 c 0,-0.0644 0.007,-0.0908 0.0153,-0.0587 0.009,0.0323 0.009,0.085 0,0.11723 -0.009,0.0323 -0.0153,0.005 -0.0153,-0.0587 z m -0.49339,-0.40189 c -0.0114,-0.0185 -0.004,-0.0335 0.0148,-0.0335 0.0195,0 0.0354,0.0151 0.0354,0.0335 0,0.0184 -0.007,0.0335 -0.0148,0.0335 -0.008,0 -0.0241,-0.0151 -0.0354,-0.0335 z m -7.29069,-0.3243 c 0.0242,-0.01 0.0531,-0.009 0.0642,0.002 0.0112,0.0112 -0.009,0.019 -0.044,0.0176 -0.0391,-0.002 -0.0469,-0.01 -0.0202,-0.0202 z m -0.002,-0.0663 c 0.0231,-0.009 0.0607,-0.009 0.0837,0 0.0231,0.009 0.004,0.0169 -0.0419,0.0169 -0.0461,0 -0.0649,-0.008 -0.0419,-0.0169 z m 1.09685,-0.0784 c -0.0614,-0.0264 -0.06,-0.0289 0.0167,-0.0306 0.0461,-8.7e-4 0.10636,0.0128 0.13397,0.0306 0.0415,0.0268 0.0385,0.0322 -0.0167,0.0306 -0.0369,-8.6e-4 -0.0972,-0.0148 -0.13397,-0.0306 z m 4.58834,-0.20095 c -0.0114,-0.0184 -0.004,-0.0335 0.0148,-0.0335 0.0195,0 0.0354,0.0151 0.0354,0.0335 0,0.0184 -0.007,0.0335 -0.0148,0.0335 -0.008,0 -0.0241,-0.0151 -0.0354,-0.0335 z m -5.36638,-0.0232 c 0.0326,-0.009 0.0778,-0.008 0.10045,0.001 0.0228,0.009 -0.004,0.0161 -0.0592,0.0154 -0.0553,-8.6e-4 -0.0739,-0.008 -0.0412,-0.0166 z m 0.45239,-0.0684 c 0.0788,-0.007 0.19934,-0.007 0.26793,1.8e-4 0.0686,0.008 0.004,0.013 -0.14323,0.0129 -0.14736,-9e-5 -0.20348,-0.005 -0.1247,-0.013 z m 1.3304,-0.1429 c -0.0553,-0.0365 -0.0884,-0.0666 -0.0737,-0.0667 0.0368,-2.9e-4 0.22441,0.0983 0.22441,0.11785 0,0.0317 -0.0524,0.014 -0.15072,-0.0511 z"
         style="fill:#000000;stroke-width:0.03349152" />
      <path
         inkscape:original-d="m 146.30624,161.97815 c 3.17351,9.70324 6.3468,19.40668 9.51987,29.11035"
         inkscape:path-effect="#path-effect7614"
         inkscape:connector-curvature="0"
         id="path7612"
         d="m 146.30624,161.97815 c 3.17325,9.70333 6.34654,19.40677 9.51987,29.11035"
         style="fill:#fe0000;fill-opacity:1;stroke:#fe0000;stroke-width:1.76235652;stroke-linecap:butt;stroke-linejoin:miter;stroke-miterlimit:4;stroke-dasharray:none;stroke-opacity:1" />
    </g>
  </g>
</svg>
