<?xml version="1.0" encoding="UTF-8" standalone="no"?>
<!-- Created with Inkscape (http://www.inkscape.org/) -->

<svg
   xmlns:dc="http://purl.org/dc/elements/1.1/"
   xmlns:cc="http://creativecommons.org/ns#"
   xmlns:rdf="http://www.w3.org/1999/02/22-rdf-syntax-ns#"
   xmlns:svg="http://www.w3.org/2000/svg"
   xmlns="http://www.w3.org/2000/svg"
   xmlns:sodipodi="http://sodipodi.sourceforge.net/DTD/sodipodi-0.dtd"
   xmlns:inkscape="http://www.inkscape.org/namespaces/inkscape"
   width="210mm"
   height="297mm"
   viewBox="0 0 210 297"
   version="1.1"
   id="svg5500"
   inkscape:version="0.92.3 (unknown)"
   sodipodi:docname="anopheles_embryo.svg">
  <defs
     id="defs5494">
    <inkscape:path-effect
       effect="bspline"
       id="path-effect6081"
       is_visible="true"
       weight="33.333333"
       steps="2"
       helper_size="0"
       apply_no_weight="true"
       apply_with_weight="true"
       only_selected="false" />
    <inkscape:path-effect
       effect="bspline"
       id="path-effect6077"
       is_visible="true"
       weight="33.333333"
       steps="2"
       helper_size="0"
       apply_no_weight="true"
       apply_with_weight="true"
       only_selected="false" />
    <inkscape:path-effect
       effect="bspline"
       id="path-effect6073"
       is_visible="true"
       weight="33.333333"
       steps="2"
       helper_size="0"
       apply_no_weight="true"
       apply_with_weight="true"
       only_selected="false" />
    <inkscape:path-effect
       effect="bspline"
       id="path-effect6069"
       is_visible="true"
       weight="33.333333"
       steps="2"
       helper_size="0"
       apply_no_weight="true"
       apply_with_weight="true"
       only_selected="false" />
    <inkscape:path-effect
       effect="bspline"
       id="path-effect6047"
       is_visible="true"
       weight="33.333333"
       steps="2"
       helper_size="0"
       apply_no_weight="true"
       apply_with_weight="true"
       only_selected="false" />
    <inkscape:path-effect
       effect="bspline"
       id="path-effect6047-1"
       is_visible="true"
       weight="33.333333"
       steps="2"
       helper_size="0"
       apply_no_weight="true"
       apply_with_weight="true"
       only_selected="false" />
  </defs>
  <sodipodi:namedview
     id="base"
     pagecolor="#ffffff"
     bordercolor="#666666"
     borderopacity="1.0"
     inkscape:pageopacity="0.0"
     inkscape:pageshadow="2"
     inkscape:zoom="1.979899"
     inkscape:cx="419.39114"
     inkscape:cy="738.87633"
     inkscape:document-units="mm"
     inkscape:current-layer="layer1"
     showgrid="false"
     inkscape:window-width="1855"
     inkscape:window-height="1056"
     inkscape:window-x="1985"
     inkscape:window-y="24"
     inkscape:window-maximized="1" />
  <metadata
     id="metadata5497">
    <rdf:RDF>
      <cc:Work
         rdf:about="">
        <dc:format>image/svg+xml</dc:format>
        <dc:type
           rdf:resource="http://purl.org/dc/dcmitype/StillImage" />
        <dc:title></dc:title>
      </cc:Work>
    </rdf:RDF>
  </metadata>
  <g
     inkscape:label="Layer 1"
     inkscape:groupmode="layer"
     id="layer1">
    <path
       style="fill:none;stroke:#000000;stroke-width:0.26458332px;stroke-linecap:butt;stroke-linejoin:miter;stroke-opacity:1"
       d="M 59.78344,93.081882 C 53.672837,92.010944 45.357361,90.751024 39.624726,90.498996 33.892091,90.246968 30.742374,91.0029 28.411329,94.404865 c -2.331044,3.401965 -3.8428,9.448985 0.1262,15.118945 3.969,5.66996 13.417917,10.96135 25.702121,15.56005 12.284203,4.59869 27.403391,8.50448 41.829442,10.39434 14.426048,1.88986 28.159348,1.76386 40.947458,-0.063 12.7881,-1.82689 24.63158,-5.35474 32.69496,-10.45743 8.06337,-5.1027 12.34722,-11.78046 13.35508,-17.51289 1.00786,-5.73243 -1.2601,-10.520352 -4.09475,-13.229098 -2.83465,-2.708746 -6.23652,-3.338721 -11.62285,-2.96075 -5.38634,0.37797 -12.75617,1.763751 -18.6465,2.86622 -5.89033,1.102469 -10.29944,1.921304 -18.08029,2.488352 -7.78084,0.567048 -18.92996,0.881995 -28.97795,0.724509 C 91.596258,97.176587 82.651037,96.546642 76.225364,95.790691 69.799691,95.03474 65.894044,94.15282 59.78344,93.081882 Z"
       id="path6045"
       inkscape:connector-curvature="0"
       inkscape:path-effect="#path-effect6047"
       inkscape:original-d="M 61.988093,93.270831 C 53.672882,92.010647 45.357406,90.750728 37.041666,89.49107 c -3.149621,0.755708 -6.299337,1.511641 -9.449406,2.267858 -1.511787,6.047949 -3.023543,12.094972 -4.535713,18.142852 9.450156,5.29168 18.899075,10.58307 28.348213,15.875 15.119173,3.90546 30.238361,7.81125 45.357145,11.71727 13.733235,-0.12626 27.466535,-0.25225 41.199405,-0.37798 11.84329,-3.52797 23.68677,-7.05582 35.52976,-10.58333 4.28388,-6.67767 8.56772,-13.35543 12.85119,-20.03274 -2.26749,-4.78774 -4.53545,-9.575662 -6.80357,-14.363097 -3.40144,-0.630211 -6.80331,-1.260184 -10.20536,-1.889881 -7.37072,1.385733 -14.74055,2.771513 -22.1116,4.157738 -4.40961,0.818713 -8.81872,1.637547 -13.22917,2.456847 -11.15121,0.314748 -22.30033,0.629695 -33.45089,0.944939 C 91.596278,97.176306 82.651057,96.546362 73.705357,95.916664 69.79976,95.034432 65.894113,94.152512 61.988093,93.270831 Z"
       sodipodi:nodetypes="cccccccccccccccc" />
    <path
       style="fill:none;stroke:#000000;stroke-width:0.28550526px;stroke-linecap:butt;stroke-linejoin:miter;stroke-opacity:1"
       d="M 55.755582,90.433849 C 49.403345,89.385796 41.998858,88.1565 36.667569,87.967288 c -5.33129,-0.189213 -8.589313,0.661736 -11.000519,4.491313 -2.411206,3.829577 -3.974944,10.636679 0.130524,17.019309 4.105467,6.38263 13.879301,12.33912 26.58592,17.51584 12.706618,5.17673 28.345701,9.57346 43.26782,11.70086 14.922116,2.12741 29.127646,1.98558 42.355496,-0.071 13.22785,-2.05653 25.47858,-6.02781 33.81922,-11.77188 8.34065,-5.74407 12.7718,-13.26119 13.81432,-19.71417 1.04251,-6.45298 -1.30344,-11.842713 -4.23556,-14.891921 -2.93213,-3.049208 -6.45098,-3.758368 -12.02252,-3.332888 -5.57154,0.425481 -13.1948,1.985448 -19.28768,3.22649 -6.09287,1.241043 -10.65359,2.162799 -18.6705,2.706621 -8.01692,0.543823 -19.48616,0.709384 -29.84829,0.374613 C 91.213661,94.885754 81.961092,94.050661 74.684374,93.199673 67.407655,92.348686 62.10782,91.481901 55.755582,90.433849 Z"
       id="path6045-1"
       inkscape:connector-curvature="0"
       inkscape:path-effect="#path-effect6047-1"
       inkscape:original-d="M 56.807623,90.615058 C 49.403395,89.385496 41.998908,88.1562 34.594149,86.927167 c -3.257925,0.850696 -6.515948,1.701645 -9.774337,2.552915 -1.563771,6.808141 -3.127511,13.615238 -4.691678,20.423308 9.775112,5.95681 19.548946,11.9133 29.323005,17.87039 15.639069,4.39636 31.278152,8.79309 46.916816,13.19007 14.205475,-0.14213 28.411005,-0.28396 42.616105,-0.42549 12.25054,-3.97141 24.50127,-7.9427 36.7515,-11.9136 4.43119,-7.51701 8.86234,-15.03413 13.2931,-22.55074 -2.34547,-5.38953 -4.69142,-10.779265 -7.03752,-16.168454 -3.51841,-0.709425 -7.03726,-1.418582 -10.55629,-2.127428 -7.62417,1.559912 -15.24743,3.119876 -22.87193,4.680342 -4.56125,0.921621 -9.12197,1.843377 -13.68409,2.765658 -11.47166,0.165336 -22.9409,0.330897 -34.41215,0.496749 -9.252993,-0.83542 -18.505562,-1.670512 -27.759116,-2.505405 -5.29986,-0.867097 -10.599695,-1.733881 -15.899941,-2.600424 z"
       sodipodi:nodetypes="cccccccccccccccc" />
    <path
       style="fill:none;stroke:#000000;stroke-width:0.26458332px;stroke-linecap:butt;stroke-linejoin:miter;stroke-opacity:1"
       d="m 80.60342,127.66666 c 0.787717,0 1.575167,0 1.890068,0.44068 0.3149,0.44067 0.157357,1.32291 0.188838,2.04754 0.03148,0.72463 0.251892,1.2914 0.519721,1.68525 0.267828,0.39384 0.582729,0.61427 1.167455,0.79023 0.584727,0.17596 1.368315,0.29651 2.234428,0.013 0.866113,-0.28352 1.779798,-0.97666 2.677361,-1.54352 0.897563,-0.56686 1.779789,-1.00798 2.567054,-1.14964 0.787265,-0.14167 1.480472,0.0159 1.921295,0.48811 0.440824,0.47224 0.629867,1.25992 0.992179,1.93729 0.362312,0.67736 0.897646,1.24419 1.874205,1.65369 0.976558,0.4095 2.393947,0.66148 3.653806,0.81895 1.25985,0.15748 2.36245,0.22048 3.30733,0.15746 0.94488,-0.063 1.73252,-0.25205 2.28366,-0.37802 0.55115,-0.12597 0.86626,-0.18899 1.79469,-0.22046 0.92842,-0.0315 2.47331,-0.0315 3.63865,0.0158 1.16534,0.0473 1.95293,0.14177 2.75601,0.252 0.80307,0.11023 1.62226,0.23625 2.83474,0.31498 1.21247,0.0787 2.8193,0.11023 5.85851,0.0315 3.03921,-0.0787 7.51265,-0.26776 11.51281,-0.74023 4.00015,-0.47247 7.52814,-1.22847 10.81955,-1.9529 3.29141,-0.72443 6.34698,-1.41744 8.99271,-2.18913 2.64572,-0.77168 4.88231,-1.62221 6.9453,-2.51986 2.06298,-0.89764 3.95313,-1.84272 5.90583,-3.05529 1.9527,-1.21258 3.96891,-2.69324 5.90587,-4.56724 1.93696,-1.874 3.79561,-4.14219 5.16567,-6.33118 1.37006,-2.189 2.25212,-4.29964 2.66153,-6.36257 0.4094,-2.06293 0.3464,-4.07911 0.15741,-5.51216 -0.18899,-1.43305 -0.50401,-2.283609 -1.18111,-3.322876 -0.6771,-1.039266 -1.71672,-2.267904 -3.00805,-3.228546 -1.29133,-0.960642 -2.83477,-1.653615 -3.77968,-2.0316 -0.94491,-0.377985 -1.29137,-0.440977 -1.87427,-0.346474 -0.58291,0.0945 -1.40136,0.346335 -1.95659,0.606169 -0.55523,0.259834 -0.84624,0.527248 -1.10628,0.720372 -0.26005,0.193123 -0.48822,0.311144 -0.74968,0.538328 -0.26146,0.227184 -0.55594,0.563548 -0.78853,1.026329 -0.23258,0.46278 -0.40305,1.05176 -0.78346,1.541367 -0.38041,0.489607 -0.97032,0.878877 -1.84828,1.120946 -0.87796,0.242069 -2.04307,0.336537 -2.89359,0.399542 -0.85052,0.06301 -1.38585,0.0945 -1.95297,0.378002 -0.56712,0.283504 -1.16527,0.818691 -1.84264,1.307041 -0.67736,0.48836 -1.43296,0.92912 -2.01576,1.24416 -0.5828,0.31504 -0.9921,0.50395 -1.78002,0.63003 -0.78793,0.12608 -1.95245,0.18903 -2.89748,0.22053 -0.94503,0.0315 -1.66931,0.0315 -2.48841,0.12601 -0.8191,0.0945 -1.7322,0.28342 -2.80334,0.4567 -1.07115,0.17327 -2.29916,0.33071 -3.63802,0.40948 -1.33885,0.0788 -2.78741,0.0788 -4.22068,0.189 -1.43328,0.11024 -2.85042,0.33069 -3.55928,0.44095 -0.70886,0.11027 -3.1657,2.56711 -3.7642,2.69311 -0.59851,0.126 -1.79505,0.3779 -2.83464,0.42518 -1.03959,0.0473 -1.92131,-0.11017 -3.3232,-0.31494 -1.40188,-0.20477 -3.3228,-0.4567 -4.45676,-0.61419 -1.13396,-0.15749 -1.4804,-0.22048 -2.77246,-0.23624 -1.29207,-0.0157 -3.52707,0.0157 -5.41702,0.22045 -1.88995,0.20472 -3.43317,0.58265 -5.55958,0.86618 -2.1264,0.28353 -4.83468,0.47248 -6.834895,0.51974 -2.000211,0.0473 -3.291492,-0.0472 -4.173556,-0.22047 -0.882065,-0.17324 -1.354442,-0.42517 -2.56726,-0.7402 -1.212818,-0.31502 -3.165297,-0.69292 -4.630028,-1.03941 -1.464731,-0.34649 -2.441068,-0.66144 -3.496281,-0.75597 -1.055213,-0.0945 -2.188953,0.0314 -2.740314,0.53542 -0.551361,0.50397 -0.519869,1.38569 -0.267836,2.26784 0.252033,0.88215 0.724366,1.76384 1.417458,2.40965 0.693091,0.6458 1.606433,1.05523 3.133989,1.44892 1.527556,0.39369 3.669709,0.77172 5.543756,1.13393 1.874046,0.36222 3.480601,0.70873 4.45698,0.96071 0.976379,0.25198 1.3229,0.40949 1.921253,0.58269 0.598352,0.1732 1.449094,0.36225 2.724604,0.39373 1.27552,0.0315 2.9768,-0.0945 4.28391,-0.40955 1.30711,-0.31502 2.2207,-0.81907 3.05526,-1.11821 0.83455,-0.29915 1.59077,-0.39368 3.16516,-0.22049 1.57439,0.17319 3.96918,0.61434 5.62279,0.89781 1.65361,0.28347 2.56714,0.40948 3.59071,0.42521 1.02358,0.0157 2.15779,-0.0788 2.86646,-0.15754 0.70867,-0.0788 0.99224,-0.14177 1.65308,-0.0788 0.66085,0.063 1.70142,0.25214 2.91396,0.42536 1.21255,0.17321 2.59874,0.33074 3.93734,0.14171 1.33859,-0.18902 2.63024,-0.72458 3.33893,-1.00803 0.70869,-0.28345 0.83471,-0.31496 1.10194,-0.40928 0.26723,-0.0943 0.67771,-0.2522 1.2286,-0.26792 0.55088,-0.0157 1.24438,0.11038 1.87426,0.2206 0.62988,0.11023 1.19701,0.20475 2.18896,0.20474 0.99195,-10e-6 2.40991,-0.0945 4.70894,-0.14177 2.29903,-0.0472 5.48096,-0.0472 8.20547,-0.34649 2.72451,-0.29925 4.99255,-0.89776 6.40993,-1.30724 1.41737,-0.40948 1.98442,-0.63 2.42529,-0.86622 0.44087,-0.23622 0.75602,-0.48834 1.47996,-0.96047 0.72394,-0.47213 1.85892,-1.16572 3.18163,-1.69321 1.3227,-0.52748 2.83502,-0.88981 3.74838,-1.42539 0.91336,-0.53559 1.22834,-1.24429 1.50863,-1.55753 0.28029,-0.31324 0.60167,-0.20611 0.74334,0.0456 0.14166,0.25172 0.14166,0.66142 0.0472,1.00797 -0.0945,0.34655 -0.28333,0.62985 -0.75618,1.18152 -0.47285,0.55167 -1.22799,1.36974 -2.18884,2.0786 -0.96086,0.70886 -2.12589,1.30712 -2.92916,1.79535 -0.80328,0.48823 -1.24413,0.8661 -1.6695,1.2757 -0.42538,0.40961 -0.83458,0.85029 -1.74844,1.57509 -0.91386,0.7248 -2.33039,1.73211 -3.46442,2.26768 -1.13403,0.53557 -1.98429,0.59855 -2.99244,0.61431 -1.00814,0.0158 -2.17318,-0.0157 -3.2285,-0.14173 -1.05532,-0.126 -2.00005,-0.34643 -2.94503,-0.33072 -0.94497,0.0157 -1.88972,0.26764 -2.7718,0.6299 -0.88208,0.36225 -1.70076,0.83457 -2.48836,1.29137 -0.78759,0.45681 -1.54325,0.89761 -2.5357,1.2127 -0.99246,0.31509 -2.22037,0.504 -3.27569,0.55127 -1.05532,0.0473 -1.93705,-0.0472 -2.56712,-0.18895 -0.63008,-0.14176 -1.00796,-0.3307 -1.71674,-0.45672 -0.70878,-0.12602 -1.74792,-0.18899 -2.74018,-0.0315 -0.99227,0.15747 -1.93698,0.53535 -2.83482,0.89763 -0.89784,0.36229 -1.748,0.70865 -2.8507,0.92921 -1.10271,0.22056 -2.45661,0.31502 -3.68523,0.0945 -1.22862,-0.2205 -2.33083,-0.75586 -3.27574,-1.05511 -0.94492,-0.29925 -1.73229,-0.36224 -2.66163,-0.3465 -0.92933,0.0157 -1.99993,0.11021 -3.10249,0.3307 -1.10257,0.2205 -2.2362,0.56689 -3.21281,0.66143 -0.97661,0.0945 -1.79533,-0.0629 -2.77194,-0.36219 -0.97661,-0.29928 -2.11025,-0.74014 -3.08671,-1.03939 -0.97646,-0.29925 -1.79531,-0.45672 -2.51982,-0.55123 -0.72451,-0.0945 -1.35432,-0.12601 -2.67766,-0.39382 -1.323349,-0.26782 -3.33842,-0.77159 -4.818832,-1.02359 -1.480411,-0.25201 -2.425264,-0.25201 -3.386095,-0.26776 -0.960832,-0.0157 -1.936997,-0.0472 -2.693146,-0.3308 -0.75615,-0.28356 -1.291478,-0.81888 -1.622195,-1.13386 -0.330718,-0.31497 -0.456689,-0.40944 -0.787397,-0.45671 -0.330708,-0.0473 -0.865995,-0.0473 -1.307064,0.15744 -0.44107,0.20469 -0.787376,0.61396 -1.19699,0.85034 -0.409613,0.23638 -0.881752,0.29933 -1.244218,0.17325 -0.362465,-0.12609 -0.61429,-0.44087 -0.918148,-0.89481 -0.303858,-0.45393 -0.7041,-1.121 -1.145034,-1.76666 -0.440933,-0.64565 -0.944963,-1.30719 -1.637839,-1.90559 -0.692876,-0.5984 -1.574876,-1.1339 -2.567299,-1.32507 -0.992423,-0.19117 -2.157158,-0.0294 -2.834458,0.0179 -0.677301,0.0473 -0.897723,-0.0157 -0.881909,-0.42565 0.01582,-0.40996 0.267598,-1.16531 0.456524,-2.09426 0.188925,-0.92895 0.314972,-2.03185 8.3e-5,-2.91355 -0.314888,-0.8817 -1.071037,-1.54333 -2.110387,-1.96855 -1.03935,-0.42522 -2.362235,-0.6142 -3.250152,-0.77932 -0.887918,-0.16511 -1.310426,-0.29691 -1.432721,-0.8335 -0.122294,-0.5366 0.122526,-1.48327 0.189894,-2.288832 0.06737,-0.805564 -0.035,-1.499505 -0.385283,-2.051023 -0.350284,-0.551519 -0.94892,-0.961111 -1.504053,-1.260345 -0.555133,-0.299234 -1.066928,-0.488206 -1.444896,-0.622074 -0.377967,-0.133869 -0.622239,-0.212666 -0.866349,-0.291411 -2.362351,-0.740203 -4.724403,-1.480312 -7.874347,-2.055196 -3.149944,-0.574884 -7.086975,-0.984334 -10.551838,-1.267826 -3.464864,-0.283492 -6.456997,-0.440973 -8.835138,-0.0158 -2.378142,0.425169 -4.141883,1.433022 -5.543733,3.307327 -1.401851,1.874306 -2.441101,4.614145 -2.756141,6.897924 -0.315039,2.28377 0.09439,4.11044 1.322949,5.95328 1.228562,1.84283 3.275712,3.70102 6.283792,5.84289 3.00808,2.14188 6.976855,4.56724 11.021088,6.59136 4.044234,2.02413 8.240057,3.67703 10.944858,4.6681 2.704802,0.99107 3.972814,1.33978 5.027911,1.70198 1.055097,0.36221 1.905664,0.74024 2.819127,0.83469 0.913462,0.0944 1.890041,-0.0946 2.488407,-0.37812 0.598366,-0.28355 0.818919,-0.66164 0.969225,-0.95755 0.150307,-0.29591 0.259108,-0.58604 0.589545,-0.69614 0.330436,-0.1101 0.898116,-0.0786 1.559262,0.50387 0.661147,0.58242 1.417434,1.71685 1.93716,2.48857 0.519726,0.77171 0.803192,1.18116 1.401855,1.43319 0.598663,0.25203 1.511978,0.34652 2.378109,0.17324 0.866131,-0.17328 1.685289,-0.61437 2.189206,-0.9136 0.503916,-0.29924 0.692981,-0.45679 0.97617,-0.70852 0.283189,-0.25173 0.661736,-0.59873 1.039439,-0.94496"
       id="path6071"
       inkscape:connector-curvature="0"
       inkscape:path-effect="#path-effect6073"
       inkscape:original-d="m 80.60342,127.66666 c 0.787717,-2.6e-4 1.575167,-2.6e-4 2.362353,0 -0.157173,0.88139 -0.314716,1.76363 -0.472472,2.64584 0.220827,0.56689 0.441238,1.13366 0.661459,1.70089 0.315325,0.22028 0.630227,0.44071 0.944941,0.66146 0.850569,0.1572 1.638162,0.25172 2.456846,0.37798 0.913464,-0.69304 1.827149,-1.38618 2.740327,-2.07887 0.881925,-0.4411 1.764154,-0.88221 2.645833,-1.32292 0.692973,0.15717 1.386179,0.31472 2.078868,0.47247 0.189201,0.78696 0.378241,1.57464 0.566965,2.36235 0.535861,0.56684 1.071198,1.13366 1.6064,1.70089 1.417695,0.25173 2.835084,0.50371 4.25223,0.75596 1.10253,0.0627 2.20513,0.12572 3.30729,0.18898 0.78754,-0.1892 1.57517,-0.37824 2.36235,-0.56696 0.31513,-0.0632 0.63023,-0.12626 0.94495,-0.18899 1.54217,-2.6e-4 3.08706,-2.6e-4 4.6302,0 0.78758,0.0942 1.57517,0.18872 2.36235,0.28349 0.81898,0.12569 1.63817,0.25171 2.45685,0.37797 1.60623,0.0312 3.21306,0.0627 4.8192,0.0945 4.47226,-0.18922 8.9457,-0.37824 13.41815,-0.56696 3.52783,-0.75617 7.05582,-1.51217 10.58333,-2.26786 3.05531,-0.69316 6.11088,-1.38617 9.16593,-2.07887 2.23639,-0.85062 4.47298,-1.70115 6.70907,-2.55134 1.88988,-0.94507 3.78003,-1.89014 5.66965,-2.83482 2.01579,-1.48042 4.03201,-2.96108 6.04762,-4.44122 1.85837,-2.26778 3.71703,-4.53597 5.57514,-6.80357 0.8821,-2.11036 1.76416,-4.221 2.64584,-6.3311 -0.0627,-2.01583 -0.12573,-4.03201 -0.18899,-6.04762 -0.31468,-0.8506 -0.6297,-1.701156 -0.94494,-2.551337 -1.03899,-1.228476 -2.07861,-2.457111 -3.1183,-3.685267 -1.54311,-0.693208 -3.08655,-1.386179 -4.63021,-2.078871 -0.34624,-0.06327 -0.6927,-0.126257 -1.03944,-0.188987 -0.81918,0.251871 -1.63763,0.503704 -2.45684,0.755952 -0.29121,0.267573 -0.58222,0.534988 -0.87407,0.803199 -0.22828,0.117947 -0.45645,0.235971 -0.68508,0.354354 -0.29422,0.3361 -0.5887,0.672466 -0.88345,1.009093 -0.17027,0.588967 -0.34073,1.177947 -0.51161,1.767703 -0.59016,0.389344 -1.18007,0.778613 -1.7705,1.168318 -1.16547,0.09426 -2.33058,0.188725 -3.49627,0.283483 -0.53534,0.03124 -1.07067,0.06273 -1.6064,0.0945 -0.59851,0.535479 -1.19666,1.07066 -1.79539,1.60639 -0.75604,0.44092 -1.51164,0.88168 -2.26786,1.32292 -0.40938,0.1888 -0.81868,0.37771 -1.22842,0.56696 -1.16607,0.0628 -2.33059,0.12573 -3.49628,0.18899 -0.72436,-2.6e-4 -1.44864,-2.6e-4 -2.17336,0 -0.91352,0.18879 -1.82662,0.37771 -2.74033,0.56697 -1.22857,0.15727 -2.45658,0.31471 -3.68527,0.47247 -1.44899,-2.7e-4 -2.89755,-2.7e-4 -4.34672,0 -1.41741,0.22026 -2.83456,0.4407 -4.25224,0.66146 l -2.45684,2.45684 c -1.19705,0.2518 -2.39359,0.5037 -3.59077,0.75595 -0.88191,-0.15779 -1.76363,-0.31524 -2.64584,-0.47247 -1.92157,-0.25231 -3.84249,-0.50423 -5.76414,-0.75595 -0.34625,-0.0633 -0.69269,-0.12626 -1.03943,-0.18899 -2.23745,0.0312 -4.47245,0.0627 -6.70908,0.0945 -1.54332,0.37775 -3.08654,0.75568 -4.63021,1.13392 -2.70911,0.18877 -5.41739,0.37772 -8.126485,0.56697 -1.291288,-0.0948 -2.582571,-0.18925 -3.874254,-0.28348 -0.472297,-0.2523 -0.944676,-0.50423 -1.417412,-0.75595 -1.953009,-0.37832 -3.905488,-0.75622 -5.858629,-1.13393 -0.976278,-0.31528 -1.952615,-0.63023 -2.929316,-0.94495 -1.133853,0.12575 -2.267593,0.25172 -3.401788,0.37798 0.03177,0.88191 0.06326,1.76363 0.0945,2.64583 0.472872,0.88194 0.945206,1.76363 1.41741,2.64584 0.913808,0.40925 1.827149,0.81868 2.740327,1.22842 2.141844,0.37766 4.283996,0.75569 6.425597,1.13393 1.606505,0.34618 3.21306,0.69269 4.819194,1.03943 0.346702,0.15721 0.693222,0.31472 1.039435,0.47247 0.850418,0.18866 1.701159,0.37772 2.55134,0.56697 1.700761,-0.12623 3.402041,-0.25225 5.102671,-0.37798 0.91356,-0.50415 1.82715,-1.0082 2.74033,-1.5119 0.75596,-0.0947 1.51217,-0.18925 2.26786,-0.28349 2.39318,0.44054 4.78796,0.88169 7.18154,1.32292 0.91363,0.12572 1.82716,0.25172 2.74033,0.37798 1.13392,-0.0947 2.26813,-0.18925 3.40179,-0.28348 0.28367,-0.0632 0.56723,-0.12626 0.85045,-0.18899 1.03856,0.18852 2.07913,0.37771 3.1183,0.56696 1.3859,0.15719 2.77209,0.31472 4.15774,0.47247 1.29146,-0.53564 2.5831,-1.0712 3.87425,-1.6064 0.12623,-0.0318 0.25225,-0.0633 0.37798,-0.0945 0.40873,-0.15737 0.81921,-0.31525 1.22842,-0.47247 0.69268,0.12563 1.38618,0.25172 2.07887,0.37798 0.56706,0.0942 1.13419,0.18872 1.70089,0.28348 1.41714,-0.0947 2.83509,-0.18925 4.25224,-0.28348 3.18093,-2.7e-4 6.36286,-2.7e-4 9.54389,0 2.26794,-0.59868 4.53598,-1.19719 6.80358,-1.79539 0.56715,-0.22072 1.13419,-0.44124 1.70089,-0.66146 0.31507,-0.25211 0.63022,-0.50423 0.94494,-0.75595 1.13315,-0.69258 2.26812,-1.38618 3.40178,-2.07887 1.51176,-0.36239 3.02407,-0.72472 4.53572,-1.08668 0.31524,-0.70897 0.63022,-1.41767 0.94494,-2.12612 0.25215,0.0627 0.56723,0.18873 0.85045,0.28349 2.6e-4,0.40899 2.6e-4,0.81869 0,1.22843 -0.18885,0.2834 -0.37771,0.5667 -0.56697,0.85044 -0.7565,0.81957 -1.51164,1.63764 -2.26785,2.45685 -1.16556,0.5984 -2.33059,1.19666 -3.49628,1.79539 -0.44083,0.37781 -0.88168,0.75568 -1.32292,1.13392 -0.40947,0.441 -0.81868,0.88168 -1.22842,1.32292 -1.41803,1.0083 -2.83456,2.01561 -4.25223,3.02381 -0.85037,0.0627 -1.70063,0.12573 -2.55134,0.18899 -1.16555,-0.0318 -2.33059,-0.0633 -3.49628,-0.0945 -0.94489,-0.22079 -1.88962,-0.44123 -2.83483,-0.66145 -0.94486,0.25177 -1.88961,0.5037 -2.83482,0.75595 -0.81895,0.47236 -1.63763,0.94467 -2.45684,1.41741 -0.75598,0.44088 -1.51164,0.88168 -2.26786,1.32292 -1.22867,0.1888 -2.45658,0.37771 -3.68527,0.56696 -0.88189,-0.0948 -1.76362,-0.18925 -2.64583,-0.28348 -0.37781,-0.1893 -0.75569,-0.37824 -1.13393,-0.56697 -1.03946,-0.0633 -2.0786,-0.12625 -3.1183,-0.18898 -0.9449,0.3778 -1.88962,0.75568 -2.83482,1.13392 -0.85047,0.34634 -1.70063,0.6927 -2.55134,1.03944 -1.35466,0.0943 -2.70857,0.18872 -4.06325,0.28348 -1.10239,-0.53584 -2.20459,-1.0712 -3.30729,-1.6064 -0.78726,-0.0633 -1.57464,-0.12625 -2.36235,-0.18899 -1.071,0.0943 -2.1416,0.18873 -3.2128,0.28349 -1.13396,0.3463 -2.26759,0.69269 -3.40178,1.03943 -0.81892,-0.1578 -1.63764,-0.31524 -2.45685,-0.47247 -1.13395,-0.44135 -2.26759,-0.88221 -3.40178,-1.32292 -0.81879,-0.15777 -1.63764,-0.31524 -2.45685,-0.47247 -0.62985,-0.0318 -1.25966,-0.0633 -1.88988,-0.0945 -2.016412,-0.50443 -4.031482,-1.0082 -6.04762,-1.5119 -0.944763,-2.7e-4 -1.889616,-2.7e-4 -2.834821,0 -0.976448,-0.0318 -1.952613,-0.0633 -2.929316,-0.0945 -0.535342,-0.53587 -1.070668,-1.0712 -1.606399,-1.6064 -0.125727,-0.0948 -0.251719,-0.18925 -0.377976,-0.28348 -0.535381,-2.6e-4 -1.070668,-2.6e-4 -1.606399,0 -0.346384,0.40941 -0.692691,0.81868 -1.039434,1.22842 -0.472534,0.0628 -0.944676,0.12573 -1.417411,0.18899 -0.251876,-0.31544 -0.503703,-0.63022 -0.755952,-0.94494 -0.346178,-0.59867 -0.755688,-1.26018 -1.133929,-1.88988 -0.503641,-0.66164 -1.007672,-1.32318 -1.511905,-1.98438 -0.881626,-0.53569 -1.763624,-1.07119 -2.645833,-1.60639 -1.102261,0.15723 -2.267592,0.31471 -3.401786,0.47247 -0.220279,-0.0633 -0.440707,-0.12626 -0.661458,-0.18899 0.252448,-0.75682 0.504233,-1.51217 0.755952,-2.26786 0.126204,-1.10223 0.252249,-2.20513 0.377977,-3.30729 -0.755489,-0.66155 -1.511641,-1.32318 -2.267858,-1.98438 -1.322684,-0.18925 -2.645568,-0.37824 -3.96875,-0.56696 -0.452597,-0.14153 -0.881679,-0.25225 -1.358356,-0.42372 0.208738,-0.93019 0.468799,-1.87292 0.720521,-2.786116 C 67.484763,98.6272 67.382394,97.933259 67.27976,97.239581 66.681738,96.829963 66.083102,96.42037 65.484374,96.01116 64.972746,95.821887 64.460951,95.632915 63.948845,95.44419 63.705,95.36518 63.216516,95.207955 63.216516,95.207955 c 0,0 -4.724304,-1.480628 -7.087052,-2.220608 -3.937209,-0.409761 -7.87424,-0.819211 -11.811756,-1.228419 -2.992226,-0.157766 -5.984359,-0.315246 -8.976934,-0.472472 -1.763771,1.007758 -3.527513,2.015609 -5.291667,3.023812 -1.039355,2.740548 -2.078604,5.480388 -3.118305,8.220982 0.409787,1.82683 0.819214,3.6535 1.228423,5.48065 2.047854,1.85832 4.095007,3.7165 6.142115,5.57515 3.968988,2.42507 7.937764,4.85043 11.906249,7.27604 4.126426,1.60611 8.315741,3.27553 12.473213,4.91369 1.260144,0.31471 2.520106,0.69269 3.779763,1.03944 0.85059,0.37766 1.701157,0.75569 2.55134,1.13393 0.976561,-0.18923 1.953141,-0.37824 2.929313,-0.56697 0.220684,-0.37812 0.441238,-0.75621 0.661459,-1.13393 0.06321,-0.22056 0.189253,-0.50423 0.283482,-0.75595 0.566513,0.0312 1.134195,0.0627 1.700893,0.0945 0.755885,1.13316 1.51217,2.26759 2.267857,3.40178 0.283763,0.40923 0.56723,0.81868 0.850448,1.22842 0.913828,0.0943 1.827149,0.18873 2.740326,0.28349 0.819002,-0.44113 1.638163,-0.88221 2.456847,-1.32292 0.18918,-0.15769 0.37824,-0.31525 0.566962,-0.47247 0.377669,-0.34622 0.756219,-0.69322 1.13393,-1.03944"
       sodipodi:nodetypes="ccccccccccccccccccccccccccccccccccccccccccccccccccccccccccccccccccccccccccccccccccccccccccccccccccccccccccccccccccccccccccccccccccccccccccccccccccccccccccccccccccccc" />
  </g>
</svg>
