<?xml version="1.0" encoding="UTF-8" standalone="no"?>
<!-- Created with Inkscape (http://www.inkscape.org/) -->

<svg
   xmlns:dc="http://purl.org/dc/elements/1.1/"
   xmlns:cc="http://creativecommons.org/ns#"
   xmlns:rdf="http://www.w3.org/1999/02/22-rdf-syntax-ns#"
   xmlns:svg="http://www.w3.org/2000/svg"
   xmlns="http://www.w3.org/2000/svg"
   xmlns:sodipodi="http://sodipodi.sourceforge.net/DTD/sodipodi-0.dtd"
   xmlns:inkscape="http://www.inkscape.org/namespaces/inkscape"
   version="1.1"
   id="svg3988"
   xml:space="preserve"
   width="816"
   height="1056"
   viewBox="0 0 816 1056"
   sodipodi:docname="larva.svg"
   inkscape:version="0.92.3 (unknown)"><metadata
     id="metadata3994"><rdf:RDF><cc:Work
         rdf:about=""><dc:format>image/svg+xml</dc:format><dc:type
           rdf:resource="http://purl.org/dc/dcmitype/StillImage" /><dc:title></dc:title></cc:Work></rdf:RDF></metadata><defs
     id="defs3992"><inkscape:path-effect
       effect="bspline"
       id="path-effect9034"
       is_visible="true"
       weight="33.333333"
       steps="2"
       helper_size="0"
       apply_no_weight="true"
       apply_with_weight="true"
       only_selected="false" /><inkscape:path-effect
       effect="bspline"
       id="path-effect9030"
       is_visible="true"
       weight="33.333333"
       steps="2"
       helper_size="0"
       apply_no_weight="true"
       apply_with_weight="true"
       only_selected="false" /><clipPath
       clipPathUnits="userSpaceOnUse"
       id="clipPath4004"><path
         d="M 0,792 H 612 V 0 H 0 Z"
         id="path4002"
         inkscape:connector-curvature="0" /></clipPath></defs><sodipodi:namedview
     pagecolor="#ffffff"
     bordercolor="#666666"
     borderopacity="1"
     objecttolerance="10"
     gridtolerance="10"
     guidetolerance="10"
     inkscape:pageopacity="0"
     inkscape:pageshadow="2"
     inkscape:window-width="1855"
     inkscape:window-height="1056"
     id="namedview3990"
     showgrid="false"
     inkscape:zoom="0.89393939"
     inkscape:cx="184.85624"
     inkscape:cy="790.50002"
     inkscape:window-x="65"
     inkscape:window-y="24"
     inkscape:window-maximized="1"
     inkscape:current-layer="g4000" /><g
     id="g3996"
     inkscape:groupmode="layer"
     inkscape:label="larva"
     transform="matrix(1.3333333,0,0,-1.3333333,0,1056)"><g
       id="g3998"><g
         id="g4000"
         clip-path="url(#clipPath4004)"><g
           id="g4006"
           transform="translate(91.6841,563.4209)"><path
             d="m 0,0 c 11.421,20.181 6.381,30.933 9.474,36.842 2.956,5.647 9.267,17.704 22.105,27.368 6.9,5.194 12.876,7.954 21.053,16.843 2.103,2.286 3.714,4.288 4.766,5.654 1.622,2.163 3.139,5.029 2.602,8.03 -1.002,5.608 -8.38,6.531 -8.421,10.526 -0.051,5.027 10.023,10.921 14.737,8.422 4.412,-2.339 5.264,-12.632 5.263,-12.632 0.001,0.001 11.313,5.312 17.895,7.368 4.015,1.255 10.062,2.483 28.421,0 19.471,-2.633 29.207,-3.95 42.105,-9.473 8.728,-3.738 22.37,-9.754 33.684,-23.158 4.007,-4.747 6.8,-9.328 8.121,-11.512 3.533,-5.843 5.706,-10.785 11.879,-27.436 1.344,-3.625 1.269,-3.555 2.401,-6.524 3.85,-10.084 5.775,-15.127 8.125,-18.739 4.23,-6.499 6.842,-4.524 16.843,-13.684 7.945,-7.277 12.457,-11.41 14.737,-17.895 3.771,-10.728 -0.904,-21.245 -3.159,-26.315 -8.217,-18.488 -25.011,-27.225 -31.578,-30.527 -8.568,-4.308 -21.628,-9.109 -66.316,-8.421 -34.569,0.532 -51.853,0.798 -72.632,6.316 C 58.006,-72.548 34.117,-66.204 16.842,-44.21 12.686,-38.918 -11.295,-19.958 0,0"
             style="fill:#ffffff;fill-opacity:1;fill-rule:nonzero;stroke:none"
             id="path4008"
             inkscape:connector-curvature="0" /></g><g
           id="g4010"
           transform="translate(91.6841,563.4209)"><path
             d="m 0,0 c 11.421,20.181 6.381,30.933 9.474,36.842 2.956,5.647 9.267,17.704 22.105,27.368 6.9,5.194 12.876,7.954 21.053,16.843 2.103,2.286 3.714,4.288 4.766,5.654 1.622,2.163 3.139,5.029 2.602,8.03 -1.002,5.608 -8.38,6.531 -8.421,10.526 -0.051,5.027 10.023,10.921 14.737,8.422 4.412,-2.339 5.264,-12.632 5.263,-12.632 0.001,0.001 11.313,5.312 17.895,7.368 4.015,1.255 10.062,2.483 28.421,0 19.471,-2.633 29.207,-3.95 42.105,-9.473 8.728,-3.738 22.37,-9.754 33.684,-23.158 4.007,-4.747 6.8,-9.328 8.121,-11.512 3.533,-5.843 5.706,-10.785 11.879,-27.436 1.344,-3.625 1.269,-3.555 2.401,-6.524 3.85,-10.084 5.775,-15.127 8.125,-18.739 4.23,-6.499 6.842,-4.524 16.843,-13.684 7.945,-7.277 12.457,-11.41 14.737,-17.895 3.771,-10.728 -0.904,-21.245 -3.159,-26.315 -8.217,-18.488 -25.011,-27.225 -31.578,-30.527 -8.568,-4.308 -21.628,-9.109 -66.316,-8.421 -34.569,0.532 -51.853,0.798 -72.632,6.316 C 58.006,-72.548 34.117,-66.204 16.842,-44.21 12.686,-38.918 -11.295,-19.958 0,0 Z"
             style="fill:none;stroke:#1d1d1b;stroke-width:1;stroke-linecap:butt;stroke-linejoin:miter;stroke-miterlimit:10;stroke-dasharray:none;stroke-opacity:1"
             id="path4012"
             inkscape:connector-curvature="0" /></g><g
           id="g4014"
           transform="translate(305.3682,600.2632)"><path
             d="m 0,0 c -5.612,5.591 -10.526,15.811 -6.944,24.21 1.953,4.582 7.544,8.402 11.579,7.369 5.408,-1.385 8.324,-2.352 10.754,-3.766 3.112,-1.81 3.039,-2.49 8.193,-6.76 6.478,-5.368 8.496,-5.984 13.514,-10.729 2.081,-1.968 3.655,-3.68 4.601,-4.746"
             style="fill:#ffffff;fill-opacity:1;fill-rule:nonzero;stroke:#1d1d1b;stroke-width:1;stroke-linecap:butt;stroke-linejoin:miter;stroke-miterlimit:10;stroke-dasharray:none;stroke-opacity:1"
             id="path4016"
             inkscape:connector-curvature="0" /></g><g
           id="g4018"
           transform="translate(334.3555,606.103)"><path
             d="m 0,0 c 3.941,1.542 6.646,1.147 8.12,0.992 4.565,-0.482 7.5,-2.617 14.292,-7.893 13.509,-10.494 14.017,-11.464 13.81,-12.487 -0.711,-3.518 -8.706,-1.894 -20.433,-6.928 C 2.24,-32.132 0.636,-37.693 -6.805,-39.059 -14.462,-40.464 -20.3,-28.122 -23.117,-21.336 -27.583,-10.577 -10.935,-4.277 0,0"
             style="fill:#ffffff;fill-opacity:1;fill-rule:nonzero;stroke:none"
             id="path4020"
             inkscape:connector-curvature="0" /></g><g
           id="g4022"
           transform="translate(334.3555,606.103)"><path
             d="m 0,0 c 3.941,1.542 6.646,1.147 8.12,0.992 4.565,-0.482 7.5,-2.617 14.292,-7.893 13.509,-10.494 14.017,-11.464 13.81,-12.487 -0.711,-3.518 -8.706,-1.894 -20.433,-6.928 C 2.24,-32.132 0.636,-37.693 -6.805,-39.059 -14.462,-40.464 -20.3,-28.122 -23.117,-21.336 -27.583,-10.577 -10.935,-4.277 0,0 Z"
             style="fill:none;stroke:#1d1d1b;stroke-width:1;stroke-linecap:butt;stroke-linejoin:miter;stroke-miterlimit:10;stroke-dasharray:none;stroke-opacity:1"
             id="path4024"
             inkscape:connector-curvature="0" /></g><g
           id="g4026"
           transform="translate(165.2788,331.2324)"><path
             d="m 0,0 c -3.852,-0.355 -7.703,8.667 -9.261,10.285 -3.221,3.346 -5.95,2.348 -4.24,7.68 3.904,12.176 15.789,21.053 15.789,21.053 5.746,4.686 13.993,10.675 24.88,16.395 0.028,0.014 0.055,0.026 0.083,0.038 6.099,2.508 14.58,6.151 24.511,10.935 26.896,12.96 38.689,21.68 51.579,29.474 29.768,17.998 33.016,42.12 41.874,50.999 18.867,18.91 13.702,10.088 18.098,18.624 4.284,8.321 5.229,19.261 4.301,36.015 -0.733,13.251 2.483,15.258 3.095,17.52 0.763,2.818 -13.907,8.02 -8.437,16.794 4.745,7.612 18.342,21.917 40.435,20.124 10.481,-0.852 16.192,-12.505 24.385,-20.235 3.318,-3.129 9.802,-13.955 15.007,-25.99 9.436,-21.815 7.107,-47.522 0,-71.245 -3.765,-12.568 -2.118,-9.077 -8.754,-23.758 -5.96,-13.187 -16.829,-24.674 -22.51,-33.142 -2.668,-3.977 -3.543,-1.74 -21.259,-19.383 C 173.969,46.641 153.384,40.206 145.215,34.046 141.032,30.891 141.806,31.571 139.806,30.261 121.204,18.071 95.16,13.411 95.16,13.411 49.127,3.861 37.891,0.022 17.626,0.906 12.764,1.118 10.511,0.971 0,0"
             style="fill:#ffffff;fill-opacity:1;fill-rule:nonzero;stroke:none"
             id="path4028"
             inkscape:connector-curvature="0" /></g><g
           id="g4030"
           transform="translate(165.2788,331.2324)"><path
             d="m 0,0 c -3.852,-0.355 -7.703,8.667 -9.261,10.285 -3.221,3.346 -5.95,2.348 -4.24,7.68 3.904,12.176 15.789,21.053 15.789,21.053 5.746,4.686 13.993,10.675 24.88,16.395 0.028,0.014 0.055,0.026 0.083,0.038 6.099,2.508 14.58,6.151 24.511,10.935 26.896,12.96 38.689,21.68 51.579,29.474 29.768,17.998 33.016,42.12 41.874,50.999 18.867,18.91 13.702,10.088 18.098,18.624 4.284,8.321 5.229,19.261 4.301,36.015 -0.733,13.251 2.483,15.258 3.095,17.52 0.763,2.818 -13.907,8.02 -8.437,16.794 4.745,7.612 18.342,21.917 40.435,20.124 10.481,-0.852 16.192,-12.505 24.385,-20.235 3.318,-3.129 9.802,-13.955 15.007,-25.99 9.436,-21.815 7.107,-47.522 0,-71.245 -3.765,-12.568 -2.118,-9.077 -8.754,-23.758 -5.96,-13.187 -16.829,-24.674 -22.51,-33.142 -2.668,-3.977 -3.543,-1.74 -21.259,-19.383 C 173.969,46.641 153.384,40.206 145.215,34.046 141.032,30.891 141.806,31.571 139.806,30.261 121.204,18.071 95.16,13.411 95.16,13.411 49.127,3.861 37.891,0.022 17.626,0.906 12.764,1.118 10.511,0.971 0,0 Z"
             style="fill:none;stroke:#1d1d1b;stroke-width:1;stroke-linecap:butt;stroke-linejoin:miter;stroke-miterlimit:10;stroke-dasharray:none;stroke-opacity:1"
             id="path4032"
             inkscape:connector-curvature="0" /></g><g
           id="g4034"
           transform="translate(335.9883,550.2505)"><path
             d="m 0,0 c 2.432,-0.609 5.874,-1.248 10.027,-1.294 2.727,-0.03 8.068,-0.041 14.233,2.264 1.114,0.417 9.777,0.348 18.448,6.348 14.51,10.042 9.212,11.773 9.921,13.303"
             style="fill:#ffffff;fill-opacity:1;fill-rule:nonzero;stroke:#1d1d1b;stroke-width:1;stroke-linecap:butt;stroke-linejoin:miter;stroke-miterlimit:10;stroke-dasharray:none;stroke-opacity:1"
             id="path4036"
             inkscape:connector-curvature="0" /></g><g
           id="g4038"
           transform="translate(333.1514,518.1201)"><path
             d="m 0,0 c 8.223,-4.879 19.51,-14.752 29.151,-14.517 7.621,0.186 19.776,-1.446 33.861,1.739 17.762,4.017 16.469,12.573 16.469,16.865"
             style="fill:#ffffff;fill-opacity:1;fill-rule:nonzero;stroke:#1d1d1b;stroke-width:1;stroke-linecap:butt;stroke-linejoin:miter;stroke-miterlimit:10;stroke-dasharray:none;stroke-opacity:1"
             id="path4040"
             inkscape:connector-curvature="0" /></g><g
           id="g4042"
           transform="translate(315.8408,483.335)"><path
             d="m 0,0 c 2.019,-3.13 12.517,-16.461 17.936,-19.502 6.365,-3.572 20.524,-7.225 32.941,-6.83 15.661,0.5 32.94,3.387 40.66,12.696"
             style="fill:#ffffff;fill-opacity:1;fill-rule:nonzero;stroke:#1d1d1b;stroke-width:1;stroke-linecap:butt;stroke-linejoin:miter;stroke-miterlimit:10;stroke-dasharray:none;stroke-opacity:1"
             id="path4044"
             inkscape:connector-curvature="0" /></g><g
           id="g4046"
           transform="translate(296.3867,454.3647)"><path
             d="m 0,0 c 4.815,-4.826 20.141,-21.48 33.372,-26.687 14.846,-5.841 44.993,-9.239 55.524,-2.691"
             style="fill:#ffffff;fill-opacity:1;fill-rule:nonzero;stroke:#1d1d1b;stroke-width:1;stroke-linecap:butt;stroke-linejoin:miter;stroke-miterlimit:10;stroke-dasharray:none;stroke-opacity:1"
             id="path4048"
             inkscape:connector-curvature="0" /></g><g
           id="g4050"
           transform="translate(263.2559,423.7734)"><path
             d="M 0,0 C 4.455,-4.765 17.948,-17.171 27.537,-22.609 38.377,-28.757 70.842,-45.631 85.64,-35.7"
             style="fill:#ffffff;fill-opacity:1;fill-rule:nonzero;stroke:#1d1d1b;stroke-width:1;stroke-linecap:butt;stroke-linejoin:miter;stroke-miterlimit:10;stroke-dasharray:none;stroke-opacity:1"
             id="path4052"
             inkscape:connector-curvature="0" /></g><g
           id="g4054"
           transform="translate(228.9316,403.5669)"><path
             d="m 0,0 c 3.171,-8.565 9.01,-19.69 12.047,-23.292 7.164,-8.495 15.065,-12.927 22.095,-16.872 6.205,-3.481 20.796,-9.222 24.76,-10.684"
             style="fill:#ffffff;fill-opacity:1;fill-rule:nonzero;stroke:#1d1d1b;stroke-width:1;stroke-linecap:butt;stroke-linejoin:miter;stroke-miterlimit:10;stroke-dasharray:none;stroke-opacity:1"
             id="path4056"
             inkscape:connector-curvature="0" /></g><g
           id="g4058"
           transform="translate(192.5303,386.6836)"><path
             d="m 0,0 c 0.115,-4.359 1.023,-16.602 10.043,-27.718 5.34,-6.582 19.48,-19.824 23.313,-21.685"
             style="fill:#ffffff;fill-opacity:1;fill-rule:nonzero;stroke:#1d1d1b;stroke-width:1;stroke-linecap:butt;stroke-linejoin:miter;stroke-miterlimit:10;stroke-dasharray:none;stroke-opacity:1"
             id="path4060"
             inkscape:connector-curvature="0" /></g><g
           id="g4062"
           transform="translate(283.3682,641.4775)"><path
             d="M 0,0 C 13.36,7.57 34.924,-6.467 35.231,-11.778"
             style="fill:#ffffff;fill-opacity:1;fill-rule:nonzero;stroke:#1d1d1b;stroke-width:1;stroke-linecap:butt;stroke-linejoin:miter;stroke-miterlimit:10;stroke-dasharray:none;stroke-opacity:1"
             id="path4064"
             inkscape:connector-curvature="0" /></g><g
           id="g4066"
           transform="translate(150.1631,560.9556)"><path
             d="m 0,0 c -3.893,-1.201 -5.739,-5.762 -6.565,-7.805 -0.893,-2.206 -0.992,-5.261 -0.146,-7.887 0.745,-2.315 1.612,-1.646 3.559,-4.661 0.768,-1.189 0.919,-3.206 1.902,-5.937 1.365,-3.795 1.259,-4.406 1.875,-4.929 1.798,-1.524 5.844,1.007 8.129,4.519 4.186,6.435 -7.867,5.623 -4.402,18.853 C 4.461,-7.429 4.12,1.271 0,0"
             style="fill:#ffffff;fill-opacity:1;fill-rule:nonzero;stroke:none"
             id="path4068"
             inkscape:connector-curvature="0" /></g><g
           id="g4070"
           transform="translate(150.1631,560.9556)"
           style="fill:#000000;fill-opacity:1"><path
             d="m 0,0 c -3.893,-1.201 -5.739,-5.762 -6.565,-7.805 -0.893,-2.206 -0.992,-5.261 -0.146,-7.887 0.745,-2.315 1.612,-1.646 3.559,-4.661 0.768,-1.189 0.919,-3.206 1.902,-5.937 1.365,-3.795 1.259,-4.406 1.875,-4.929 1.798,-1.524 5.844,1.007 8.129,4.519 4.186,6.435 -7.867,5.623 -4.402,18.853 C 4.461,-7.429 4.12,1.271 0,0 Z"
             style="fill:#000000;stroke:#1d1d1b;stroke-width:1;stroke-linecap:butt;stroke-linejoin:miter;stroke-miterlimit:10;stroke-dasharray:none;stroke-opacity:1;fill-opacity:1"
             id="path4072"
             inkscape:connector-curvature="0" /></g><g
           id="g4074"
           transform="translate(156.0181,341.5176)"><path
             d="m 0,0 c -6.405,4.315 -12.549,3.485 -18.429,2.288 -7.153,-1.457 -20.117,-5.181 -19.834,-8.815 0.138,-1.772 3.367,-2.812 6.611,-3.858 3,-0.966 10.209,0.09 21.488,1.103 C -4.373,-8.763 2.559,-1.724 0,0"
             style="fill:#ffffff;fill-opacity:1;fill-rule:nonzero;stroke:none"
             id="path4076"
             inkscape:connector-curvature="0" /></g><g
           id="g4078"
           transform="translate(156.0181,341.5176)"><path
             d="M 0,0 C -1.7748862,1.1957274 -3.233105,3.4794985 -4.9678431,3.986732 -9.4932234,5.309943 -14.178404,3.1533 -18.429,2.288 c -4.217082,-0.8589806 -10.305605,-3.8407259 -14.656946,-5.7926261 -1.855411,-0.83229 -2.515459,-1.2008629 -3.986166,-1.934124 -0.930563,-0.4639577 -3.163966,-1.2517897 -3.118953,-1.8298132 -2.350711,-0.511292 1.770267,-0.3633238 3.266006,-0.3480189 1.536427,0.015721 2.88773,-0.4586478 4.531496,-0.9886659 3,-0.966 10.950563,-1.6897519 22.229563,-0.6767519 C -4.373,-8.763 2.559,-1.724 0,0 Z"
             style="fill:none;stroke:#1d1d1b;stroke-width:1;stroke-linecap:butt;stroke-linejoin:miter;stroke-miterlimit:10;stroke-dasharray:none;stroke-opacity:1"
             id="path4080"
             inkscape:connector-curvature="0"
             sodipodi:nodetypes="cscsscsccc" /></g><g
           id="g4082"
           transform="translate(156.0181,341.5176)"><path
             d="m 0,0 c -4.618,0.182 -9.132,-7.271 -13.748,-13.13 -3.607,-4.579 -8.085,-10.262 -6.612,-12.121 0.982,-1.239 2.578,1.326 11.107,4.356 6.497,2.309 8.305,3.932 9.363,5.124 2.596,2.926 6.681,6.467 4.324,9.803 C 2.626,-3.409 0.209,-0.008 0,0"
             style="fill:#ffffff;fill-opacity:1;fill-rule:nonzero;stroke:none"
             id="path4084"
             inkscape:connector-curvature="0" /></g><g
           id="g4086"
           transform="translate(156.0181,341.5176)"><path
             d="m 0,0 c -4.618,0.182 -9.132,-7.271 -13.748,-13.13 -2.105163,-2.672453 -3.765448,-5.720959 -5.107763,-8.165826 -0.633003,-1.15294 -0.909469,-2.245797 -1.148673,-3.027517 -0.122667,-0.400877 -0.860089,-1.036059 -0.652189,-1.298439 0.617687,-0.779342 1.478304,1.355348 4.154456,2.755156 1.5784,0.82561 4.084988,0.847524 7.249169,1.971626 6.497,2.309 8.305,3.932 9.363,5.124 2.596,2.926 6.681,6.467 4.324,9.803 C 2.626,-3.409 0.209,-0.008 0,0 Z"
             style="fill:none;stroke:#1d1d1b;stroke-width:1;stroke-linecap:butt;stroke-linejoin:miter;stroke-miterlimit:10;stroke-dasharray:none;stroke-opacity:1"
             id="path4088"
             inkscape:connector-curvature="0"
             sodipodi:nodetypes="ccsscscccc" /></g><g
           id="g4090"
           transform="translate(328.9502,621.3159)"><path
             d="M 0,0 C 0,6.721 5.315,12.16 11.885,12.16"
             style="fill:none;stroke:#1d1d1b;stroke-width:1;stroke-linecap:butt;stroke-linejoin:miter;stroke-miterlimit:10;stroke-dasharray:none;stroke-opacity:1"
             id="path4092"
             inkscape:connector-curvature="0" /></g><g
           id="g4094"
           transform="translate(333.1514,617.9956)"><path
             d="M 0,0 C 0,6.469 3.31,11.704 7.399,11.704"
             style="fill:none;stroke:#1d1d1b;stroke-width:1;stroke-linecap:butt;stroke-linejoin:miter;stroke-miterlimit:10;stroke-dasharray:none;stroke-opacity:1"
             id="path4096"
             inkscape:connector-curvature="0" /></g><g
           id="g4098"
           transform="translate(380.8984,579.7734)"><path
             d="M 0,0 C 0,10.133 -2.084,18.333 -4.66,18.333"
             style="fill:none;stroke:#1d1d1b;stroke-width:1;stroke-linecap:butt;stroke-linejoin:miter;stroke-miterlimit:10;stroke-dasharray:none;stroke-opacity:1"
             id="path4100"
             inkscape:connector-curvature="0" /></g><g
           id="g4102"
           transform="translate(383.8916,576.4219)"><path
             d="M 0,0 C 0,10.031 3.538,18.147 7.909,18.147"
             style="fill:none;stroke:#1d1d1b;stroke-width:1;stroke-linecap:butt;stroke-linejoin:miter;stroke-miterlimit:10;stroke-dasharray:none;stroke-opacity:1"
             id="path4104"
             inkscape:connector-curvature="0" /></g><g
           id="g4106"
           transform="translate(413.6123,503.3472)"><path
             d="M 0,0 C 0,-6.078 6.063,-10.996 13.559,-10.996"
             style="fill:none;stroke:#1d1d1b;stroke-width:1;stroke-linecap:butt;stroke-linejoin:miter;stroke-miterlimit:10;stroke-dasharray:none;stroke-opacity:1"
             id="path4108"
             inkscape:connector-curvature="0" /></g><g
           id="g4110"
           transform="translate(413.6123,509.6826)"><path
             d="M 0,0 C 0,-5.083 7.171,-9.196 16.034,-9.196"
             style="fill:none;stroke:#1d1d1b;stroke-width:1;stroke-linecap:butt;stroke-linejoin:miter;stroke-miterlimit:10;stroke-dasharray:none;stroke-opacity:1"
             id="path4112"
             inkscape:connector-curvature="0" /></g><g
           id="g4114"
           transform="translate(372.9023,409.582)"><path
             d="M 0,0 C 0,-1.757 9.244,-3.178 20.667,-3.178"
             style="fill:none;stroke:#1d1d1b;stroke-width:1;stroke-linecap:butt;stroke-linejoin:miter;stroke-miterlimit:10;stroke-dasharray:none;stroke-opacity:1"
             id="path4116"
             inkscape:connector-curvature="0" /></g><g
           id="g4118"
           transform="translate(368.8467,406.4038)"><path
             d="M 0,0 C 0,-7.233 2.831,-13.086 6.331,-13.086"
             style="fill:none;stroke:#1d1d1b;stroke-width:1;stroke-linecap:butt;stroke-linejoin:miter;stroke-miterlimit:10;stroke-dasharray:none;stroke-opacity:1"
             id="path4120"
             inkscape:connector-curvature="0" /></g><g
           id="g4122"
           transform="translate(368.8467,406.4038)"><path
             d="M 0,0 C 0,-3.617 8.368,-6.543 18.71,-6.543"
             style="fill:none;stroke:#1d1d1b;stroke-width:1;stroke-linecap:butt;stroke-linejoin:miter;stroke-miterlimit:10;stroke-dasharray:none;stroke-opacity:1"
             id="path4124"
             inkscape:connector-curvature="0" /></g><g
           id="g4126"
           transform="translate(305.085,361.4932)"><path
             d="M 0,0 C 0,-9.245 3.033,-16.727 6.781,-16.727"
             style="fill:none;stroke:#1d1d1b;stroke-width:1;stroke-linecap:butt;stroke-linejoin:miter;stroke-miterlimit:10;stroke-dasharray:none;stroke-opacity:1"
             id="path4128"
             inkscape:connector-curvature="0" /></g><g
           id="g4130"
           transform="translate(310.4941,365.2783)"><path
             d="M 0,0 C 0,-10.308 -4.606,-18.649 -10.3,-18.649"
             style="fill:none;stroke:#1d1d1b;stroke-width:1;stroke-linecap:butt;stroke-linejoin:miter;stroke-miterlimit:10;stroke-dasharray:none;stroke-opacity:1"
             id="path4132"
             inkscape:connector-curvature="0" /></g><g
           id="g4134"
           transform="translate(214.4658,334.9424)"><path
             d="M 0,0 C 0,-10.499 -2.352,-18.995 -5.257,-18.995"
             style="fill:none;stroke:#1d1d1b;stroke-width:1;stroke-linecap:butt;stroke-linejoin:miter;stroke-miterlimit:10;stroke-dasharray:none;stroke-opacity:1"
             id="path4136"
             inkscape:connector-curvature="0" /></g><g
           id="g4138"
           transform="translate(218.7915,335.98059)"><path
             d="M 0,0 C 0,-8.202 -6.822,-14.84 -15.253,-14.84"
             style="fill:none;stroke:#1d1d1b;stroke-width:1;stroke-linecap:butt;stroke-linejoin:miter;stroke-miterlimit:10;stroke-dasharray:none;stroke-opacity:1"
             id="path4140"
             inkscape:connector-curvature="0" /></g><g
           id="g4142"
           transform="translate(413.6123,503.3472)"><path
             d="M 0,0 C 0,-4.514 9.702,-8.166 21.693,-8.166"
             style="fill:none;stroke:#1d1d1b;stroke-width:1;stroke-linecap:butt;stroke-linejoin:miter;stroke-miterlimit:10;stroke-dasharray:none;stroke-opacity:1"
             id="path4144"
             inkscape:connector-curvature="0" /></g><g
           id="g4146"
           transform="translate(305.085,361.4932)"><path
             d="M 0,0 C 0,-6.651 5.564,-12.034 12.44,-12.034"
             style="fill:none;stroke:#1d1d1b;stroke-width:1;stroke-linecap:butt;stroke-linejoin:miter;stroke-miterlimit:10;stroke-dasharray:none;stroke-opacity:1"
             id="path4148"
             inkscape:connector-curvature="0" /></g><g
           id="g4150"
           transform="translate(214.4658,334.9424)"><path
             d="M 0,0 C 0,-8.984 4.173,-16.255 9.331,-16.255"
             style="fill:none;stroke:#1d1d1b;stroke-width:1;stroke-linecap:butt;stroke-linejoin:miter;stroke-miterlimit:10;stroke-dasharray:none;stroke-opacity:1"
             id="path4152"
             inkscape:connector-curvature="0" /></g><g
           id="g4154"
           transform="translate(380.8984,579.7734)"><path
             d="M 0,0 C 0,5.066 8.198,9.167 18.33,9.167"
             style="fill:none;stroke:#1d1d1b;stroke-width:1;stroke-linecap:butt;stroke-linejoin:miter;stroke-miterlimit:10;stroke-dasharray:none;stroke-opacity:1"
             id="path4156"
             inkscape:connector-curvature="0" /></g><g
           id="g4158"
           transform="translate(328.9502,621.3159)"><path
             d="M 0,0 C 0,2.42 8.921,4.378 19.945,4.378"
             style="fill:none;stroke:#1d1d1b;stroke-width:1;stroke-linecap:butt;stroke-linejoin:miter;stroke-miterlimit:10;stroke-dasharray:none;stroke-opacity:1"
             id="path4160"
             inkscape:connector-curvature="0" /></g><path
           style="fill:none;stroke:#000000;stroke-width:0.75px;stroke-linecap:butt;stroke-linejoin:miter;stroke-opacity:1"
           d="m 115.9805,334.59335 c -2.29268,-1.12069 -4.58559,-2.2415 -6.9593,-2.98343 -2.37372,-0.74194 -4.82544,-1.10383 -7.11032,-0.80156 -2.284882,0.30228 -4.399816,1.26824 -6.516033,2.23478"
           id="path9028"
           inkscape:connector-curvature="0"
           inkscape:path-effect="#path-effect9030"
           inkscape:original-d="m 115.9805,334.59335 c -2.29283,-1.12038 -4.58574,-2.24119 -6.88073,-3.36339 -2.45238,-0.36135 -4.9041,-0.72324 -7.35729,-1.08599 -2.116069,0.96757 -4.231003,1.93353 -6.347633,2.89917"
           sodipodi:nodetypes="cccc" /><path
           style="fill:none;stroke:#000000;stroke-width:0.75px;stroke-linecap:butt;stroke-linejoin:miter;stroke-opacity:1"
           d="m 136.15102,316.05427 c -1.48225,-0.88935 -2.96537,-1.77923 -4.44893,-2.57049 -1.48356,-0.79126 -2.9658,-1.48297 -4.60685,-1.86194 -1.64105,-0.37896 -3.43663,-0.44426 -4.71818,-0.34387 -1.28154,0.10039 -2.04414,0.36629 -3.56305,0.73109 -1.51892,0.36481 -3.79025,0.82746 -6.06349,1.29051"
           id="path9032"
           inkscape:connector-curvature="0"
           inkscape:path-effect="#path-effect9034"
           inkscape:original-d="m 136.15102,316.05427 c -1.48238,-0.88913 -2.96551,-1.779 -4.44938,-2.66963 -1.48326,-0.69179 -2.9655,-1.3835 -4.44938,-2.07638 -1.79809,-0.0647 -3.59368,-0.12996 -5.39324,-0.19612 -0.76319,0.26712 -1.52578,0.53302 -2.29048,0.79864 -2.27327,0.46395 -4.5446,0.92661 -6.81802,1.38879"
           sodipodi:nodetypes="cccccc" /></g></g></g></svg>