<?xml version="1.0" encoding="UTF-8" standalone="no"?>
<!-- Generator: Adobe Illustrator 22.0.1, SVG Export Plug-In . SVG Version: 6.00 Build 0)  -->

<svg
   xmlns:dc="http://purl.org/dc/elements/1.1/"
   xmlns:cc="http://creativecommons.org/ns#"
   xmlns:rdf="http://www.w3.org/1999/02/22-rdf-syntax-ns#"
   xmlns:svg="http://www.w3.org/2000/svg"
   xmlns="http://www.w3.org/2000/svg"
   xmlns:xlink="http://www.w3.org/1999/xlink"
   xmlns:sodipodi="http://sodipodi.sourceforge.net/DTD/sodipodi-0.dtd"
   xmlns:inkscape="http://www.inkscape.org/namespaces/inkscape"
   version="1.1"
   id="svg2"
   inkscape:version="0.92.3 (unknown)"
   sodipodi:docname="mosquito.svg"
   x="0px"
   y="0px"
   viewBox="0 0 816 1056"
   style="enable-background:new 0 0 816 1056;"
   xml:space="preserve"><metadata
   id="metadata2806"><rdf:RDF><cc:Work
       rdf:about=""><dc:format>image/svg+xml</dc:format><dc:type
         rdf:resource="http://purl.org/dc/dcmitype/StillImage" /></cc:Work></rdf:RDF></metadata><defs
   id="defs2804" />
<style
   type="text/css"
   id="style2713">
	.st0{clip-path:url(#SVGID_2_);}
	.st1{fill:#EDEDED;}
	.st2{fill:none;stroke:#1D1D1B;stroke-linecap:round;stroke-miterlimit:10;}
	.st3{clip-path:url(#SVGID_2_);fill:none;stroke:#1D1D1B;stroke-linecap:round;stroke-miterlimit:10;}
</style>
<sodipodi:namedview
   bordercolor="#666666"
   borderopacity="1"
   gridtolerance="10"
   guidetolerance="10"
   id="namedview4"
   inkscape:current-layer="g14"
   inkscape:cx="-57.172011"
   inkscape:cy="539.49027"
   inkscape:pageopacity="0"
   inkscape:pageshadow="2"
   inkscape:window-height="1056"
   inkscape:window-maximized="1"
   inkscape:window-width="1855"
   inkscape:window-x="65"
   inkscape:window-y="24"
   inkscape:zoom="0.89393939"
   objecttolerance="10"
   pagecolor="#ffffff"
   showgrid="false">
	</sodipodi:namedview>
<g
   id="g10"
   transform="matrix(1.3333333,0,0,-1.3333333,0,1056)"
   inkscape:groupmode="layer"
   inkscape:label="mosquito">
	<g
   id="g12">
		<g
   id="g2799">
			<defs
   id="defs2717">
				<rect
   id="SVGID_1_"
   x="-102"
   y="-132"
   width="816"
   height="1056" />
			</defs>
			<clipPath
   id="SVGID_2_">
				<use
   xlink:href="#SVGID_1_"
   style="overflow:visible;"
   id="use2719" />
			</clipPath>
			<g
   id="g14"
   class="st0"
   clip-path="url(#SVGID_2_)">
				
				
				
				
				
				
				
				
				
				
				
				
				
				
				
				
				
				
				
				
				
				
				
				
				
				
				
				
				
				
				
				
				
				
				
				<g
   id="g3423"><g
     transform="matrix(0.76349413,0,0,1,282.86383,386.6611)"
     id="g20">
					<path
   d="M0,0c1.9,10.4,3.5,11.9,5.9,22.6C9,36,10,49.6,9.1,63.3       c-0.9,13.2,2.2,17.9,5.2,20c3,2.2,12.7,2.5,12.7,2.5s10.3-1.6,13.6-3c5-2,4.6-12.5,4.6-20.7c0-14.2,0-27.7,2.1-39.8       c2.2-12.1,4-8.8,6.7-22.4c1-5.1,3.5-20.6,1.3-39.9c-0.2-1.6-0.4-3.1-0.6-4.5c-0.9-5.2-3.1-16.3-10.9-27.6       c-4.1-6-9.8-14.2-16.8-13.8c-6,0.3-10,6.6-15.1,14.9c-9,14.6-11.7,28-12.1,30C-3.7-22.6-1.4-7.8,0,0"
   class="st1"
   inkscape:connector-curvature="0"
   id="path22" />
				</g><g
     transform="matrix(0.76349413,0,0,1,282.86383,386.6611)"
     id="g24">
					<path
   d="M0,0c1.9,10.4,3.5,11.9,5.9,22.6C9,36,10,49.6,9.1,63.3       c-0.9,13.2,2.2,17.9,5.2,20c3,2.2,12.7,2.5,12.7,2.5s10.3-1.6,13.6-3c5-2,4.6-12.5,4.6-20.7c0-14.2,0-27.7,2.1-39.8       c2.2-12.1,4-8.8,6.7-22.4c1-5.1,3.5-20.6,1.3-39.9c-0.2-1.6-0.4-3.1-0.6-4.5c-0.9-5.2-3.1-16.3-10.9-27.6       c-4.1-6-9.8-14.2-16.8-13.8c-6,0.3-10,6.6-15.1,14.9c-9,14.6-11.7,28-12.1,30C-3.7-22.6-1.4-7.8,0,0z"
   class="st2"
   inkscape:connector-curvature="0"
   id="path26" />
				</g><g
     transform="matrix(0.76349413,0,0,1,328.70921,511.9492)"
     id="g28">
					<path
   d="M0,0c2.3-11.7,2.5-33.4-10.2-40.4c-5.4-2.9-8.2,1-22.8,1       c-17-0.1-20.8-5.1-26.6-1.9c-10.2,5.5-10,27.2-6.4,41.4c3.1,12.2,14,39.5,33,39.5C-13,39.5-2.6,13.2,0,0"
   class="st1"
   inkscape:connector-curvature="0"
   id="path30" />
				</g><g
     transform="matrix(0.76349413,0,0,1,328.70921,511.9492)"
     id="g32">
					<path
   d="M0,0c2.3-11.7,2.5-33.4-10.2-40.4c-5.4-2.9-8.2,1-22.8,1       c-17-0.1-20.8-5.1-26.6-1.9c-10.2,5.5-10,27.2-6.4,41.4c3.1,12.2,14,39.5,33,39.5C-13,39.5-2.6,13.2,0,0z"
   class="st2"
   inkscape:connector-curvature="0"
   id="path34" />
				</g><g
     transform="matrix(0.76349413,0,0,1,323.81582,571.1519)"
     id="g36">
					<path
   d="M0,0c0.4-9.6-13.4-19.7-26.6-19.7       C-40.1-19.7-53.9-9.1-53.3,0c0.4,5.9,6.9,10.4,11.4,13.6c3.7,2.6,8.4,5.9,15.2,6.2c9.3,0.4,15.8-5.2,18.1-7.1       C-5.1,9.7-0.2,5.5,0,0"
   class="st1"
   inkscape:connector-curvature="0"
   id="path38" />
				</g><g
     transform="matrix(0.76349413,0,0,1,323.81582,571.1519)"
     id="g40">
					<path
   d="M0,0c0.4-9.6-13.4-19.7-26.6-19.7       C-40.1-19.7-53.9-9.1-53.3,0c0.4,5.9,6.9,10.4,11.4,13.6c3.4,2.4,6.2,4.4,10.2,5.4c0.8,0.2,2.7,0.7,5,0.8       c8.9,0.4,15.9-5.3,18.1-7.1C-5.1,9.7-0.2,5.5,0,0z"
   class="st2"
   inkscape:connector-curvature="0"
   id="path42" />
				</g><g
     transform="matrix(0.76349413,0,0,1,413.44438,452.915)"
     id="g44">
					<path
   d="M0,0c54.6-8.2,113.5,22,112.5,37.6       C111.8,49,73.8,56.4,48.8,56.9c-15.4,0.3-30.2-2.9-59.6-9.1c-21-4.5-27.7-7-39.6-9.7c-6-1.4-9.5-2.2-14.1-2.9       c-15.1-2.4-29.6-1.9-45.9-6.6c-1.1-0.3-2.3-0.7-2.3-1.3c-0.3-3.2,29.3-6.9,64.5-14.9C-12.4,4.1-13.1,2,0,0"
   class="st1"
   inkscape:connector-curvature="0"
   id="path46" />
				</g><g
     transform="matrix(0.76349413,0,0,1,413.44438,452.915)"
     id="g48">
					<path
   d="M0,0c54.6-8.2,113.5,22,112.5,37.6       C111.8,49,73.8,56.4,48.8,56.9c-15.4,0.3-30.2-2.9-59.6-9.1c-21-4.5-27.7-7-39.6-9.7c-6-1.4-9.5-2.2-14.1-2.9       c-15.1-2.4-29.6-1.9-45.9-6.6c-1.1-0.3-2.3-0.7-2.3-1.3c-0.3-3.2,29.3-6.9,64.5-14.9C-12.4,4.1-13.1,2,0,0z"
   class="st2"
   inkscape:connector-curvature="0"
   id="path50" />
				</g><g
     transform="matrix(0.76349413,0,0,1,191.71981,453.9136)"
     id="g52">
					<path
   d="M0,0c-55.2-6.2-113.4,22.7-112.3,37.7       c0.8,11.1,38.8,18.2,63.8,18.5c15.4,0.2,30.1-3,59.5-9.3c27.8-6,30.6-8.4,53.6-12.8c29.8-5.6,48-5.4,48.2-8.1       c0.2-2.9-20.7-6.3-53.3-13C9.6,2.8,12.1,1.4,0,0"
   class="st1"
   inkscape:connector-curvature="0"
   id="path54" />
				</g><g
     transform="matrix(0.76349413,0,0,1,191.71981,453.9136)"
     id="g56">
					<path
   d="M0,0c-55.2-6.2-113.4,22.7-112.3,37.7       c0.8,11.1,38.8,18.2,63.8,18.5c15.4,0.2,30.1-3,59.5-9.3c27.8-6,30.6-8.4,53.6-12.8c29.8-5.6,48-5.4,48.2-8.1       c0.2-2.9-20.7-6.3-53.3-13C9.6,2.8,12.1,1.4,0,0z"
   class="st2"
   inkscape:connector-curvature="0"
   id="path58" />
				</g><g
     transform="matrix(0.76349413,0,0,1,305.14793,701.9956)"
     id="g60">
					<path
   d="M-1,0c0.5-9.2,0-12.9,0.3-27.5c0.1-3.7-0.1-8.1,0-13.8       c0.4-14.9,0.5-28.8,0.5-28.8c0.4-5.2-0.3-7.9-0.1-13.9c0.7-15.1,1.9-21.9,0.8-26.1c-0.1-0.5-0.3-0.9-0.3-1.2h-3.5       c-0.2,0-0.3,0.5-0.3,1.1c-1,8.7-0.2,22.5-0.1,39.2c0,11.9,0.1,12.6,0.3,27.9C-3-20.8-3.5-12-3.4-0.6C-3.1,6-4.2,16.6-2.4,28.5       C-0.4,16.5-1.4,7.6-1,0"
   class="st1"
   inkscape:connector-curvature="0"
   id="path62" />
				</g><g
     transform="matrix(0.76349413,0,0,1,305.14793,701.9956)"
     id="g64">
					<path
   d="M-1,0       c0.1-9.1-0.4-12.8,0-27.4c0.1-3.7,0.2-8.1,0.4-14c0.4-14.9,0.1-27.7,0.1-27.7C-0.3-75-0.2-84,0.1-89.9       c0.1-15.1,0.6-16,0.6-20.2c-0.1-0.5-0.3-0.9-0.3-1.2h-3.5c-0.2,0-0.3,0.5-0.3,1.1c0,8.3-0.2,22.5-0.1,39.2       c0,11.9,0.1,12.6,0.3,27.9c0.3,22-0.2,31.1,0,42.5C-3.1,6-4.2,16.6-2.4,28.5C-0.4,16.5-1.4,7.6-1,0z"
   class="st2"
   sodipodi:nodetypes="cccccccscccccc"
   inkscape:connector-curvature="0"
   id="path66" />
				</g><g
     transform="matrix(0.76349413,0,0,1,329.07904,509.1299)"
     id="g68">
					<path
   d="M0,0l43.9,61.7"
   class="st2"
   inkscape:connector-curvature="0"
   id="path70" />
				</g><g
     transform="matrix(0.76349413,0,0,1,362.62354,570.7925)"
     id="g72">
					<path
   d="M0,0l15.1,73.3"
   class="st2"
   inkscape:connector-curvature="0"
   id="path74" />
				</g><g
     transform="matrix(0.76349413,0,0,1,374.16475,644.124)"
     id="g76">
					<path
   d="M0,0c9.6,3.9,21.2,9.8,33.3,18.4c9,6.4,16.4,13,22.2,18.9"
   class="st2"
   inkscape:connector-curvature="0"
   id="path78" />
				</g><g
     transform="matrix(0.76349413,0,0,1,277.30421,508.2163)"
     id="g80">
					<path
   d="M0,0l-43.2,60.5"
   class="st2"
   inkscape:connector-curvature="0"
   id="path82" />
				</g><g
     transform="matrix(0.76349413,0,0,1,244.32333,568.7534)"
     id="g84">
					<path
   d="M0,0l-15.1,73.3"
   class="st2"
   inkscape:connector-curvature="0"
   id="path86" />
				</g><g
     transform="matrix(0.76349413,0,0,1,232.7822,642.085)"
     id="g88">
					<path
   d="M0,0c-10,4.1-22.4,10.2-35.2,19.6       c-8.2,6-14.9,12.1-20.4,17.7"
   class="st2"
   inkscape:connector-curvature="0"
   id="path90" />
				</g><g
     transform="matrix(0.76349413,0,0,1,324.03655,474.0352)"
     id="g92">
					<path
   d="M0,0l67.4-38.5"
   class="st2"
   inkscape:connector-curvature="0"
   id="path94" />
				</g><g
     transform="matrix(0.76349413,0,0,1,375.94819,435.5791)"
     id="g96">
					<path
   d="M0,0l30.3-72.7"
   class="st2"
   inkscape:connector-curvature="0"
   id="path98" />
				</g><g
     transform="matrix(0.76349413,0,0,1,399.19155,362.4297)"
     id="g100">
					<path
   d="M0,0c15.3-12.1,39.3-27.2,74.7-37.1       c6.4-1.8,12.6-3.3,18.7-4.5"
   class="st2"
   inkscape:connector-curvature="0"
   id="path102" />
				</g><g
     transform="matrix(0.76349413,0,0,1,333.66222,458.52)"
     id="g104">
					<path
   d="M0,0c-5.2,1.1-21.9,17.8-14.6,12C-12.9,10.5-1,9.3,4.2,8.2       c5.2-1.1,8.6-3.8,7.4-6.1C10.4-0.2,5.2-1.1,0,0"
   class="st1"
   inkscape:connector-curvature="0"
   id="path106" />
				</g><g
     transform="matrix(0.76349413,0,0,1,333.66222,458.52)"
     id="g108">
					<path
   d="M0,0       c-3.9,0.8-13.6,10.1-15.7,12.4c-0.6,0.7-0.8,1,1-0.5C-12.9,10.5-1,9.3,4.2,8.2c5.2-1.1,8.6-3.8,7.4-6.1C10.4-0.2,5.2-1.1,0,0z"
   class="st2"
   sodipodi:nodetypes="cscccc"
   inkscape:connector-curvature="0"
   id="path110" />
				</g><g
     transform="matrix(0.76349413,0,0,1,316.7267,470.3164)"
     id="g112">
					<path
   d="M0,0l53.4-74.3"
   class="st2"
   inkscape:connector-curvature="0"
   id="path114" />
				</g><g
     transform="matrix(0.76349413,0,0,1,357.75329,396)"
     id="g116">
					<path
   d="M0,0l30.3-104.6"
   class="st2"
   inkscape:connector-curvature="0"
   id="path118" />
				</g><g
     transform="matrix(0.76349413,0,0,1,380.70438,291.5693)"
     id="g120">
					<path
   d="M0,0c15.3-17.4,39.3-39.1,74.7-53.4       c6.4-2.6,12.6-4.7,18.7-6.5"
   class="st2"
   inkscape:connector-curvature="0"
   id="path122" />
				</g><g
     transform="matrix(0.76349413,0,0,1,280.61732,473.2935)"
     id="g124">
					<path
   d="M0,0l-69.4-39.6"
   class="st2"
   inkscape:connector-curvature="0"
   id="path126" />
				</g><g
     transform="matrix(0.76349413,0,0,1,227.21037,433.7197)"
     id="g128">
					<path
   d="M0,0l-30.3-72.7"
   class="st2"
   inkscape:connector-curvature="0"
   id="path130" />
				</g><g
     transform="matrix(0.76349413,0,0,1,203.96663,360.5703)"
     id="g132">
					<path
   d="M0,0c-15.3-12.1-39.3-27.2-74.7-37.1       c-6.4-1.8-12.6-3.3-18.7-4.5"
   class="st2"
   inkscape:connector-curvature="0"
   id="path134" />
				</g><g
     transform="matrix(0.76349413,0,0,1,287.02014,469.5303)"
     id="g136">
					<path
   d="M0,0l-54.2-75.4"
   class="st2"
   inkscape:connector-curvature="0"
   id="path138" />
				</g><g
     transform="matrix(0.76349413,0,0,1,245.4049,394.1406)"
     id="g140">
					<path
   d="M0,0l-30.3-104.6"
   class="st2"
   inkscape:connector-curvature="0"
   id="path142" />
				</g><g
     transform="matrix(0.76349413,0,0,1,222.4538,289.71)"
     id="g144">
					<path
   d="M0,0c-15.3-17.4-39.3-39.1-74.7-53.4       c-6.4-2.6-12.6-4.7-18.7-6.5"
   class="st2"
   inkscape:connector-curvature="0"
   id="path146" />
				</g><g
     transform="matrix(0.76349413,0,0,1,311.51051,588.748)"
     id="g148">
					<path
   d="M0,0c0.5,8.8,1.9,19.5,5,31.5c3.2,12.2,7.3,22.4,11.2,30.5       "
   class="st2"
   inkscape:connector-curvature="0"
   id="path150" />
				</g><g
     transform="matrix(0.76349413,0,0,1,296.78263,588.6787)"
     id="g152">
					<path
   d="M0,0c-0.1,7.3-1.1,19.2-5.6,33.1       C-9.8,46-15.5,55.6-19.4,61.4"
   class="st2"
   inkscape:connector-curvature="0"
   id="path154" />
				</g><g
     transform="matrix(0.76349413,0,0,1,268.9028,459.3945)"
     id="g156">
					<path
   d="M0,0c5.3,0.8,22.9,16.6,15.3,11.1       C13.4,9.8,1.5,9.3-3.8,8.4c-5.3-0.8-8.8-3.4-7.7-5.7C-10.4,0.4-5.3-0.8,0,0"
   class="st1"
   inkscape:connector-curvature="0"
   id="path158" />
				</g><g
     transform="matrix(0.76349413,0,0,1,268.9028,459.3945)"
     id="g160">
					<path
   d="M0,0c3.6,0.5,12.8,7.9,16,11       c1.6,1.5,1.5,1.3-0.7,0.2C13.4,9.8,1.5,9.3-3.8,8.4c-5.3-0.8-8.8-3.4-7.7-5.7C-10.4,0.4-5.3-0.8,0,0z"
   class="st2"
   sodipodi:nodetypes="ssccss"
   inkscape:connector-curvature="0"
   id="path162" />
				</g></g>
			</g>
			<path
   class="st3"
   d="M307.3,590.7c0,48.6,4.9,88,11,88"
   clip-path="url(#SVGID_2_)"
   id="path2795" />
			<path
   class="st3"
   d="M300.9,590.8c0,48.1-3.5,86.9-7.8,86.9"
   clip-path="url(#SVGID_2_)"
   id="path2797" />
		</g>
	</g>
</g>
</svg>